<svg width="18" height="15" viewBox="0 0 18 15" fill="none" xmlns="http://www.w3.org/2000/svg">
<path d="M1.30127 6.5C0.748986 6.5 0.30127 6.94771 0.30127 7.5C0.301269 8.05228 0.748984 8.5 1.30127 8.5L1.30127 6.5ZM17.0084 8.20712C17.3989 7.8166 17.3989 7.18343 17.0084 6.79291L10.6444 0.428941C10.2539 0.0384165 9.62073 0.0384159 9.23021 0.42894C8.83969 0.819464 8.83968 1.45263 9.23021 1.84315L14.8871 7.50001L9.2302 13.1569C8.83967 13.5474 8.83967 14.1806 9.23019 14.5711C9.62072 14.9616 10.2539 14.9616 10.6444 14.5711L17.0084 8.20712ZM1.30127 8.5L16.3013 8.50002L16.3013 6.50002L1.30127 6.5L1.30127 8.5Z" fill="#C3CBE4"/>
</svg>
