<svg width="17" height="16" viewBox="0 0 17 16" fill="none" xmlns="http://www.w3.org/2000/svg">
<path d="M16 7C16.5523 7 17 7.44771 17 8C17 8.55228 16.5523 9 16 9L16 7ZM0.292894 8.70712C-0.0976314 8.3166 -0.0976315 7.68343 0.292892 7.29291L6.65685 0.928941C7.04737 0.538417 7.68053 0.538416 8.07106 0.92894C8.46158 1.31946 8.46158 1.95263 8.07106 2.34315L2.41421 8.00001L8.07107 13.6569C8.4616 14.0474 8.4616 14.6806 8.07108 15.0711C7.68055 15.4616 7.04739 15.4616 6.65686 15.0711L0.292894 8.70712ZM16 9L1 9.00002L0.999999 7.00002L16 7L16 9Z" fill="#8C90AB"/>
</svg>
