<svg width="12" height="12" viewBox="0 0 12 12" fill="none" xmlns="http://www.w3.org/2000/svg">
<g clip-path="url(#clip0_242:173)">
<path d="M1.86218 11.6817C1.86404 11.7668 1.90005 11.8478 1.96248 11.9073C2.02491 11.9668 2.10879 12.0001 2.19615 12.0001H2.99913C3.08582 12.0001 3.16896 11.9665 3.23026 11.9068C3.29156 11.8471 3.32601 11.7662 3.32601 11.6817V10.5745H1.86218V11.6817Z" fill="#09182D"/>
<path d="M9.12439 11.6817C9.12439 11.7662 9.15883 11.8471 9.22013 11.9068C9.28143 11.9665 9.36458 12.0001 9.45127 12.0001H10.2542C10.3416 12.0001 10.4255 11.9668 10.4879 11.9073C10.5504 11.8478 10.5864 11.7668 10.5882 11.6817V10.5745H9.12439V11.6817Z" fill="#09182D"/>
<path d="M11.6256 5.37032L11.3485 2.4153C11.2833 1.75935 10.9702 1.15039 10.4699 0.706636C9.96959 0.262885 9.31784 0.0160015 8.64115 0.0139189H3.66699C2.97435 0.0129267 2.30642 0.264576 1.7948 0.719292C1.28317 1.17401 0.964941 1.79883 0.902781 2.47067L0.646967 5.37032C0.643231 5.41638 0.643231 5.46267 0.646967 5.50873V9.17655C0.64695 9.58346 0.811954 9.97391 1.10606 10.2629C1.40017 10.552 1.79958 10.7162 2.21739 10.7198H10.0339C10.4542 10.7198 10.8572 10.5572 11.1544 10.2678C11.4516 9.97838 11.6185 9.58584 11.6185 9.17655V5.50873C11.6247 5.46285 11.627 5.41656 11.6256 5.37032Z" fill="#5468FF"/>
<path d="M2.49455 2.41519C2.49455 2.23165 2.56942 2.05562 2.70268 1.92584C2.83594 1.79606 3.01669 1.72314 3.20515 1.72314H9.00359C9.19205 1.72314 9.37279 1.79606 9.50606 1.92584C9.63932 2.05562 9.71418 2.23165 9.71418 2.41519L9.92736 4.78889H2.28137L2.49455 2.41519Z" fill="white"/>
<path d="M2.58693 8.87895C2.44639 8.87895 2.309 8.83837 2.19214 8.76233C2.07529 8.68628 1.98421 8.5782 1.93043 8.45175C1.87665 8.3253 1.86258 8.18615 1.89 8.05191C1.91742 7.91766 1.98509 7.79435 2.08446 7.69757C2.18384 7.60079 2.31046 7.53487 2.44831 7.50817C2.58615 7.48147 2.72902 7.49517 2.85887 7.54755C2.98871 7.59993 3.09968 7.68863 3.17777 7.80244C3.25585 7.91624 3.29752 8.05004 3.29752 8.18691C3.29752 8.37045 3.22266 8.54648 3.0894 8.67626C2.95613 8.80604 2.77539 8.87895 2.58693 8.87895Z" fill="#FFF3C0"/>
<path d="M9.88479 8.98955C9.69633 8.98955 9.51558 8.91664 9.38232 8.78686C9.24906 8.65707 9.17419 8.48105 9.17419 8.29751C9.17419 8.11397 9.24906 7.93795 9.38232 7.80816C9.51558 7.67838 9.69633 7.60547 9.88479 7.60547C10.0733 7.60547 10.254 7.67838 10.3873 7.80816C10.5205 7.93795 10.5954 8.11397 10.5954 8.29751C10.5954 8.48105 10.5205 8.65707 10.3873 8.78686C10.254 8.91664 10.0733 8.98955 9.88479 8.98955Z" fill="#FFF3C0"/>
</g>
<defs>
<clipPath id="clip0_242:173">
<rect width="11" height="12" fill="white" transform="translate(0.632812)"/>
</clipPath>
</defs>
</svg>
