<svg width="22" height="21" viewBox="0 0 22 21" fill="none" xmlns="http://www.w3.org/2000/svg">
<path d="M14.4024 6.59336L20.5923 7.54124C20.709 7.55597 20.8191 7.60535 20.9097 7.68355C21.0003 7.76174 21.0675 7.86547 21.1034 7.98241C21.1393 8.09935 21.1424 8.2246 21.1123 8.34332C21.0822 8.46203 21.0201 8.56923 20.9335 8.65219L16.4592 13.2081C16.3853 13.2817 16.3297 13.3732 16.2974 13.4745C16.2651 13.5758 16.2571 13.6838 16.274 13.7891L17.3268 20.2306C17.3478 20.3512 17.336 20.4755 17.2926 20.5893C17.2491 20.7032 17.1759 20.8019 17.0813 20.8743C16.9867 20.9466 16.8745 20.9896 16.7576 20.9983C16.6407 21.0071 16.5238 20.9812 16.4203 20.9237L10.8835 17.866C10.7951 17.816 10.6963 17.7899 10.5959 17.7899C10.4955 17.7899 10.3967 17.816 10.3083 17.866L4.7618 20.9237C4.65798 20.9772 4.54215 20.9999 4.42685 20.9894C4.31156 20.9789 4.20121 20.9356 4.10779 20.8642C4.01437 20.7928 3.94144 20.696 3.89692 20.5843C3.8524 20.4726 3.83799 20.3503 3.85524 20.2306L4.97625 13.7789C4.99076 13.6737 4.98157 13.5664 4.94942 13.4655C4.91726 13.3646 4.86303 13.273 4.79104 13.1979L0.316767 8.63181C0.234557 8.54522 0.176808 8.43658 0.149895 8.31786C0.122982 8.19914 0.127946 8.07495 0.164241 7.959C0.200536 7.84304 0.266754 7.73982 0.355589 7.66071C0.444423 7.5816 0.552428 7.52967 0.667691 7.51066L6.85759 6.58316C6.95762 6.56852 7.05266 6.5283 7.13428 6.46608C7.21589 6.40385 7.28157 6.32154 7.32549 6.22643L10.1036 0.36588C10.1549 0.256142 10.2347 0.163666 10.3338 0.0989818C10.4328 0.0342974 10.5473 0 10.6641 0C10.781 0 10.8954 0.0342974 10.9945 0.0989818C11.0936 0.163666 11.1733 0.256142 11.2246 0.36588L13.9833 6.23663C14.0237 6.32473 14.0822 6.40239 14.1547 6.46406C14.2271 6.52574 14.3117 6.56989 14.4024 6.59336Z" fill="#FFFFFF"/>
</svg>
