<svg width="13" height="13" viewBox="0 0 13 13" fill="none" xmlns="http://www.w3.org/2000/svg">
<mask id="path-1-inside-1_279:674" fill="white">
<path d="M8.97439 4.33746L12.5115 4.8791C12.5781 4.88752 12.641 4.91574 12.6928 4.96042C12.7446 5.00511 12.783 5.06438 12.8035 5.1312C12.824 5.19802 12.8258 5.2696 12.8086 5.33743C12.7914 5.40527 12.7559 5.46653 12.7064 5.51393L10.1497 8.11733C10.1074 8.15938 10.0757 8.21164 10.0572 8.26952C10.0388 8.32741 10.0342 8.38914 10.0439 8.44931L10.6455 12.1302C10.6575 12.1991 10.6507 12.2701 10.6259 12.3352C10.6011 12.4002 10.5592 12.4566 10.5052 12.498C10.4511 12.5393 10.387 12.5639 10.3202 12.5689C10.2534 12.5739 10.1866 12.5591 10.1274 12.5262L6.96354 10.779C6.91307 10.7504 6.8566 10.7355 6.79922 10.7355C6.74184 10.7355 6.68537 10.7504 6.6349 10.779L3.46545 12.5262C3.40612 12.5568 3.33993 12.5698 3.27405 12.5638C3.20817 12.5578 3.14511 12.533 3.09173 12.4922C3.03835 12.4514 2.99667 12.3961 2.97123 12.3323C2.94579 12.2684 2.93755 12.1985 2.94742 12.1302L3.58799 8.44348C3.59628 8.38335 3.59103 8.32203 3.57266 8.2644C3.55428 8.20676 3.52329 8.15441 3.48216 8.1115L0.92543 5.50229C0.878452 5.45281 0.845453 5.39072 0.830074 5.32289C0.814695 5.25505 0.817532 5.18408 0.838272 5.11782C0.859012 5.05156 0.896851 4.99258 0.947613 4.94737C0.998376 4.90217 1.06009 4.8725 1.12596 4.86163L4.66304 4.33163C4.72021 4.32326 4.77451 4.30028 4.82115 4.26473C4.86779 4.22917 4.90532 4.18213 4.93041 4.12779L6.51792 0.778899C6.54724 0.716191 6.5928 0.663348 6.64942 0.626385C6.70604 0.589423 6.77146 0.569824 6.83821 0.569824C6.90496 0.569824 6.97038 0.589423 7.027 0.626385C7.08362 0.663348 7.12919 0.716191 7.1585 0.778899L8.73487 4.13361C8.75795 4.18395 8.79139 4.22833 8.8328 4.26357C8.87421 4.29882 8.92256 4.32405 8.97439 4.33746Z"/>
</mask>
<path d="M8.97439 4.33746L12.5115 4.8791C12.5781 4.88752 12.641 4.91574 12.6928 4.96042C12.7446 5.00511 12.783 5.06438 12.8035 5.1312C12.824 5.19802 12.8258 5.2696 12.8086 5.33743C12.7914 5.40527 12.7559 5.46653 12.7064 5.51393L10.1497 8.11733C10.1074 8.15938 10.0757 8.21164 10.0572 8.26952C10.0388 8.32741 10.0342 8.38914 10.0439 8.44931L10.6455 12.1302C10.6575 12.1991 10.6507 12.2701 10.6259 12.3352C10.6011 12.4002 10.5592 12.4566 10.5052 12.498C10.4511 12.5393 10.387 12.5639 10.3202 12.5689C10.2534 12.5739 10.1866 12.5591 10.1274 12.5262L6.96354 10.779C6.91307 10.7504 6.8566 10.7355 6.79922 10.7355C6.74184 10.7355 6.68537 10.7504 6.6349 10.779L3.46545 12.5262C3.40612 12.5568 3.33993 12.5698 3.27405 12.5638C3.20817 12.5578 3.14511 12.533 3.09173 12.4922C3.03835 12.4514 2.99667 12.3961 2.97123 12.3323C2.94579 12.2684 2.93755 12.1985 2.94742 12.1302L3.58799 8.44348C3.59628 8.38335 3.59103 8.32203 3.57266 8.2644C3.55428 8.20676 3.52329 8.15441 3.48216 8.1115L0.92543 5.50229C0.878452 5.45281 0.845453 5.39072 0.830074 5.32289C0.814695 5.25505 0.817532 5.18408 0.838272 5.11782C0.859012 5.05156 0.896851 4.99258 0.947613 4.94737C0.998376 4.90217 1.06009 4.8725 1.12596 4.86163L4.66304 4.33163C4.72021 4.32326 4.77451 4.30028 4.82115 4.26473C4.86779 4.22917 4.90532 4.18213 4.93041 4.12779L6.51792 0.778899C6.54724 0.716191 6.5928 0.663348 6.64942 0.626385C6.70604 0.589423 6.77146 0.569824 6.83821 0.569824C6.90496 0.569824 6.97038 0.589423 7.027 0.626385C7.08362 0.663348 7.12919 0.716191 7.1585 0.778899L8.73487 4.13361C8.75795 4.18395 8.79139 4.22833 8.8328 4.26357C8.87421 4.29882 8.92256 4.32405 8.97439 4.33746Z" stroke="#8C90AB" stroke-width="1" mask="url(#path-1-inside-1_279:674)"/>
</svg>
