<svg width="13" height="12" viewBox="0 0 13 12" fill="none" xmlns="http://www.w3.org/2000/svg">
<path d="M8.78689 3.76763L12.324 4.30928C12.3906 4.3177 12.4535 4.34592 12.5053 4.3906C12.5571 4.43528 12.5955 4.49455 12.616 4.56137C12.6365 4.6282 12.6383 4.69977 12.6211 4.76761C12.6039 4.83545 12.5684 4.8967 12.5189 4.94411L9.9622 7.54751C9.91992 7.58956 9.88816 7.64182 9.86971 7.6997C9.85126 7.75758 9.84668 7.81932 9.85637 7.87948L10.458 11.5603C10.47 11.6292 10.4632 11.7003 10.4384 11.7653C10.4136 11.8304 10.3717 11.8868 10.3177 11.9281C10.2636 11.9695 10.1995 11.9941 10.1327 11.9991C10.0659 12.004 9.99906 11.9893 9.93992 11.9564L6.77604 10.2091C6.72557 10.1806 6.6691 10.1657 6.61172 10.1657C6.55434 10.1657 6.49787 10.1806 6.4474 10.2091L3.27795 11.9564C3.21862 11.9869 3.15243 11.9999 3.08655 11.9939C3.02067 11.9879 2.95761 11.9632 2.90423 11.9224C2.85085 11.8816 2.80917 11.8263 2.78373 11.7624C2.75829 11.6986 2.75005 11.6287 2.75992 11.5603L3.40049 7.87366C3.40878 7.81353 3.40353 7.75221 3.38516 7.69457C3.36678 7.63694 3.33579 7.58458 3.29466 7.54168L0.73793 4.93246C0.690952 4.88298 0.657953 4.8209 0.642574 4.75306C0.627195 4.68522 0.630032 4.61426 0.650772 4.548C0.671512 4.48174 0.709351 4.42275 0.760113 4.37755C0.810876 4.33234 0.872593 4.30267 0.938458 4.29181L4.47554 3.76181C4.53271 3.75344 4.58701 3.73046 4.63365 3.6949C4.68029 3.65934 4.71782 3.61231 4.74291 3.55796L6.33042 0.209074C6.35974 0.146367 6.4053 0.0935235 6.46192 0.056561C6.51854 0.0195985 6.58396 0 6.65071 0C6.71746 0 6.78288 0.0195985 6.8395 0.056561C6.89612 0.0935235 6.94169 0.146367 6.971 0.209074L8.54737 3.56379C8.57045 3.61413 8.60389 3.65851 8.6453 3.69375C8.68671 3.72899 8.73506 3.75422 8.78689 3.76763Z" fill="white"/>
</svg>
