<svg width="13" height="13" viewBox="0 0 13 13" fill="none" xmlns="http://www.w3.org/2000/svg">
<path d="M11.9944 5.70946L9.60705 8.14038C9.50804 8.23968 9.43534 8.36089 9.39333 8.49266C9.35099 8.62548 9.34061 8.76649 9.36273 8.90382L9.36291 8.90495L9.92099 12.3196L7.01945 10.7172C6.89538 10.6476 6.75524 10.6105 6.61172 10.6105C6.46829 10.6105 6.32823 10.6476 6.20422 10.7171L3.2999 12.3182L3.89311 8.90408L3.89461 8.89545L3.8958 8.88679C3.91425 8.75302 3.90264 8.61646 3.86154 8.48753C3.82042 8.35854 3.75046 8.23943 3.65555 8.14045L3.65557 8.14043L3.65178 8.13656L1.2586 5.69424L4.54795 5.20136C4.54831 5.20131 4.54866 5.20126 4.54902 5.2012L4.54964 5.20111L4.47554 4.70663M11.9944 5.70946L6.65013 1.64674M11.9944 5.70946L8.7112 5.2067L8.68616 5.20286L8.66164 5.19652C8.5354 5.16385 8.41931 5.10281 8.32124 5.01934C8.22398 4.93657 8.1469 4.8339 8.09403 4.71954M11.9944 5.70946L12.1622 5.53859L12.1676 5.53314L12.1731 5.52785C12.1693 5.53147 12.1658 5.53519 12.1626 5.53901C12.1492 5.55505 12.1407 5.57257 12.1364 5.58951C12.1311 5.61038 12.1316 5.6321 12.138 5.65298C12.1445 5.67395 12.1575 5.69568 12.1786 5.71391C12.1971 5.72987 12.2209 5.74226 12.2483 5.74799C12.2526 5.74888 12.2569 5.74961 12.2613 5.75016L12.2483 5.74851L8.78689 4.71246C8.73506 4.69905 8.68671 4.67382 8.6453 4.63857C8.60389 4.60333 8.57045 4.55895 8.54737 4.50861M4.47554 4.70663C4.53271 4.69826 4.58701 4.67528 4.63365 4.63973C4.68029 4.60417 4.71782 4.55713 4.74291 4.50279M4.47554 4.70663L0.938458 5.23663L4.47554 4.70663ZM4.74291 4.50279L5.19472 4.71696L5.19556 4.71519C5.19599 4.71426 5.19643 4.71333 5.19686 4.7124L4.74291 4.50279ZM4.74291 4.50279L6.33042 1.1539C6.35974 1.09119 6.4053 1.03835 6.46192 1.00139C6.51854 0.964423 6.58396 0.944824 6.65071 0.944824C6.71746 0.944824 6.78288 0.964423 6.8395 1.00139C6.89612 1.03835 6.94169 1.09119 6.971 1.1539L8.54737 4.50861M8.54737 4.50861L8.09286 4.71699C8.09325 4.71784 8.09364 4.71869 8.09403 4.71954M8.54737 4.50861L8.09484 4.72125L8.09403 4.71954M8.09403 4.71954L6.65013 1.64674M6.65013 1.64674L6.78223 1.36807L6.78224 1.36808L6.78338 1.36563C6.783 1.36644 6.78261 1.36725 6.78221 1.36806C6.77292 1.38681 6.75756 1.4055 6.73523 1.42008C6.7117 1.43543 6.68236 1.44482 6.65071 1.44482C6.61906 1.44482 6.58972 1.43543 6.56619 1.42008C6.54327 1.40512 6.52768 1.38581 6.51847 1.36654L6.65013 1.64674Z" stroke="#8C90AB"/>
</svg>
