<svg width="12" height="13" viewBox="0 0 12 13" fill="none" xmlns="http://www.w3.org/2000/svg">
<path d="M5.06777 3.85527C6.00623 3.85527 6.76701 3.09449 6.76701 2.15603C6.76701 1.21756 6.00623 0.456787 5.06777 0.456787C4.12931 0.456787 3.36853 1.21756 3.36853 2.15603C3.36853 3.09449 4.12931 3.85527 5.06777 3.85527Z" fill="#09182D"/>
<path d="M5.17883 3.49951L6.28246 7.55783L9.59919 7.51112L10.6327 10.2147" stroke="#09182D" stroke-width="1.5" stroke-linecap="round" stroke-linejoin="round"/>
<path d="M6.12488 4.84204H7.98178" stroke="#09182D" stroke-width="1.5" stroke-linecap="round" stroke-linejoin="round"/>
<path d="M7.9174 9.4381C7.73346 9.94132 7.42633 10.3904 7.02408 10.7443C6.62183 11.0982 6.13729 11.3457 5.61475 11.4641C5.09221 11.5824 4.54833 11.568 4.03283 11.422C3.51733 11.2759 3.04664 11.0031 2.66379 10.6282C2.28094 10.2534 1.99814 9.78863 1.84123 9.27634C1.68433 8.76405 1.65832 8.2206 1.7656 7.69567C1.87287 7.17074 2.10999 6.68106 2.4553 6.2714C2.80061 5.86174 3.24309 5.54515 3.7423 5.35059" stroke="#09182D" stroke-width="1.5" stroke-linecap="round" stroke-linejoin="round"/>
</svg>
