<svg width="63" height="20" viewBox="0 0 63 20" fill="none" xmlns="http://www.w3.org/2000/svg">
<path d="M0.612305 19V0.515625H7.08691C9.32975 0.515625 11.0309 0.947266 12.1904 1.81055C13.3499 2.66536 13.9297 3.9222 13.9297 5.58105C13.9297 6.48665 13.6969 7.28646 13.2314 7.98047C12.766 8.66602 12.1185 9.1696 11.2891 9.49121C12.237 9.72819 12.9818 10.2064 13.5234 10.9258C14.0736 11.6452 14.3486 12.5254 14.3486 13.5664C14.3486 15.3438 13.7816 16.6895 12.6475 17.6035C11.5133 18.5176 9.89681 18.9831 7.79785 19H0.612305ZM4.4209 10.9512V15.9404H7.68359C8.58073 15.9404 9.27897 15.7288 9.77832 15.3057C10.2861 14.874 10.54 14.2816 10.54 13.5283C10.54 11.8356 9.66406 10.9766 7.91211 10.9512H4.4209ZM4.4209 8.25977H7.23926C9.16048 8.22591 10.1211 7.45996 10.1211 5.96191C10.1211 5.12402 9.87565 4.52311 9.38477 4.15918C8.90234 3.78678 8.13639 3.60059 7.08691 3.60059H4.4209V8.25977ZM31.208 0.515625V12.6904C31.208 14.7132 30.5732 16.3128 29.3037 17.4893C28.0426 18.6657 26.3161 19.2539 24.124 19.2539C21.9658 19.2539 20.252 18.6826 18.9824 17.54C17.7129 16.3975 17.0654 14.8275 17.04 12.8301V0.515625H20.8486V12.7158C20.8486 13.9261 21.1364 14.8105 21.7119 15.3691C22.2959 15.9193 23.0999 16.1943 24.124 16.1943C26.2653 16.1943 27.3529 15.0687 27.3867 12.8174V0.515625H31.208ZM43.916 14.1504C43.916 13.431 43.6621 12.8809 43.1543 12.5C42.6465 12.1107 41.7324 11.7044 40.4121 11.2812C39.0918 10.8496 38.0465 10.4264 37.2764 10.0117C35.1774 8.8776 34.1279 7.34993 34.1279 5.42871C34.1279 4.43001 34.4072 3.54134 34.9658 2.7627C35.5329 1.97559 36.3411 1.36198 37.3906 0.921875C38.4486 0.481771 39.6335 0.261719 40.9453 0.261719C42.2656 0.261719 43.4421 0.50293 44.4746 0.985352C45.5072 1.45931 46.307 2.13216 46.874 3.00391C47.4495 3.87565 47.7373 4.86589 47.7373 5.97461H43.9287C43.9287 5.12826 43.6621 4.47233 43.1289 4.00684C42.5957 3.53288 41.8467 3.2959 40.8818 3.2959C39.9508 3.2959 39.2272 3.49479 38.7109 3.89258C38.1947 4.2819 37.9365 4.79818 37.9365 5.44141C37.9365 6.04232 38.237 6.5459 38.8379 6.95215C39.4473 7.3584 40.3402 7.73926 41.5166 8.09473C43.6833 8.74642 45.2617 9.55469 46.252 10.5195C47.2422 11.4844 47.7373 12.6862 47.7373 14.125C47.7373 15.7246 47.1322 16.9814 45.9219 17.8955C44.7116 18.8011 43.0824 19.2539 41.0342 19.2539C39.6123 19.2539 38.3174 18.9958 37.1494 18.4795C35.9814 17.9548 35.0885 17.2396 34.4707 16.334C33.8613 15.4284 33.5566 14.3789 33.5566 13.1855H37.3779C37.3779 15.2253 38.5967 16.2451 41.0342 16.2451C41.9398 16.2451 42.6465 16.0632 43.1543 15.6992C43.6621 15.3268 43.916 14.8105 43.916 14.1504ZM57.4873 8.65332H62.0703V11.9668H57.4873V17.1465H53.9961V11.9668H49.4004V8.65332H53.9961V3.68945H57.4873V8.65332Z" fill="white"/>
</svg>
