<svg width="375" height="284" viewBox="0 0 375 284" fill="none" xmlns="http://www.w3.org/2000/svg">
<g clip-path="url(#clip0_477:13221)">
<path d="M153.306 179.181L153.516 179.541L153.306 179.181Z" fill="#F8F8FB" stroke="#CACFDE" stroke-linecap="round" stroke-linejoin="round"/>
<path d="M173.161 164.107C172.48 161.321 171.005 158.791 168.914 156.825C167.528 155.63 165.908 154.736 164.158 154.201H162.819C164.093 155.275 165.136 156.595 165.886 158.082C168.085 162.281 168.185 166.761 167.485 171.29C167.055 174.063 166.376 176.807 165.806 179.56H165.646C165.623 179.951 165.58 180.341 165.517 180.727C165.037 182.942 164.551 185.15 164.058 187.351H165.586C166.166 186.444 166.786 185.556 167.305 184.608C168.095 183.151 168.814 181.615 169.563 180.179H169.743C170.453 178.363 171.132 176.547 171.872 174.752C172.819 172.685 173.403 170.471 173.6 168.207C173.658 166.826 173.51 165.445 173.161 164.107Z" fill="#F8F8FB" stroke="#CACFDE" stroke-linecap="round" stroke-linejoin="round"/>
<path d="M160.84 178.972C160.74 178.413 160.65 177.844 160.56 177.276C160.091 174.472 159.481 171.689 159.181 168.866C158.902 166.06 159.051 163.228 159.621 160.466C159.967 158.142 160.926 155.952 162.399 154.121L161.29 154.191C161.29 154.241 161.21 154.331 161.16 154.35C156.573 155.857 153.745 160.476 153.666 165.204C153.734 168.849 154.472 172.451 155.844 175.829C156.274 177.016 156.743 178.193 157.193 179.371H157.373C158.459 181.672 159.544 183.983 160.63 186.304C160.8 186.653 160.93 187.022 161.07 187.391H162.669L161.05 179.63L160.84 178.972Z" fill="#F8F8FB" stroke="#CACFDE" stroke-linecap="round" stroke-linejoin="round"/>
<path d="M165.806 179.54C166.376 176.787 167.055 174.043 167.485 171.27C168.185 166.741 168.085 162.291 165.886 158.062C165.136 156.575 164.093 155.255 162.819 154.181L162.399 154.121C160.925 155.952 159.967 158.142 159.621 160.466C159.051 163.228 158.902 166.06 159.181 168.866C159.481 171.689 160.091 174.472 160.56 177.276C160.65 177.844 160.74 178.413 160.84 178.972L161.05 179.62L162.669 187.381H164.058C164.551 185.173 165.037 182.965 165.517 180.757C165.58 180.371 165.623 179.981 165.646 179.59L165.806 179.54Z" fill="#F8F8FB" stroke="#CACFDE" stroke-linecap="round" stroke-linejoin="round"/>
<path d="M176.748 160.605C175.086 158.085 172.622 156.198 169.753 155.248C168.006 154.461 166.09 154.119 164.178 154.251C165.928 154.786 167.548 155.679 168.934 156.874C171.025 158.841 172.5 161.371 173.181 164.157C173.537 165.517 173.685 166.923 173.62 168.327C173.423 170.591 172.839 172.805 171.892 174.871C171.152 176.667 170.473 178.483 169.763 180.298H169.583C168.834 181.775 168.115 183.291 167.325 184.728C166.806 185.725 166.186 186.563 165.607 187.471L166.126 187.601L167.185 187.451C168.185 186.154 171.392 181.715 171.772 181.007H172.202C172.541 180.488 172.861 180.009 173.201 179.47C175.291 176.779 176.888 173.739 177.917 170.492C178.476 168.862 178.662 167.127 178.459 165.416C178.257 163.705 177.672 162.061 176.748 160.605Z" fill="#F8F8FB" stroke="#CACFDE" stroke-linecap="round" stroke-linejoin="round"/>
<path d="M154.095 180.079C154.101 180.135 154.118 180.189 154.145 180.238L154.545 180.707L155.214 181.954L158.312 186.494C158.477 186.814 158.738 187.077 159.058 187.244C159.378 187.412 159.742 187.477 160.101 187.431C160.433 187.405 160.767 187.405 161.1 187.431C160.96 187.062 160.83 186.693 160.66 186.344C159.581 184.029 158.495 181.718 157.403 179.411H157.223C156.773 178.233 156.304 177.056 155.874 175.869C154.502 172.491 153.764 168.889 153.695 165.244C153.775 160.516 156.603 155.897 161.19 154.39C161.19 154.39 161.28 154.281 161.32 154.231C159.229 154.105 157.147 154.587 155.324 155.617C149.399 158.61 145.742 164.596 149.089 171.968C150.381 174.464 151.812 176.885 153.376 179.221L153.586 179.58L153.745 179.859L154.165 180.119" fill="#F8F8FB"/>
<path d="M154.095 180.079C154.101 180.135 154.118 180.189 154.145 180.238L154.545 180.707L155.214 181.954L158.312 186.494C158.477 186.814 158.738 187.077 159.058 187.244C159.378 187.412 159.742 187.477 160.101 187.431C160.433 187.405 160.767 187.405 161.1 187.431C160.96 187.062 160.83 186.693 160.66 186.344C159.581 184.029 158.495 181.718 157.403 179.411H157.223C156.773 178.233 156.304 177.056 155.874 175.869C154.502 172.491 153.764 168.889 153.695 165.244C153.775 160.516 156.603 155.897 161.19 154.39C161.19 154.39 161.28 154.281 161.32 154.231C159.229 154.105 157.147 154.587 155.324 155.617C149.399 158.61 145.742 164.596 149.089 171.968C150.381 174.464 151.812 176.885 153.376 179.221L153.586 179.58L153.745 179.859L154.165 180.119" stroke="#CACFDE" stroke-linecap="round" stroke-linejoin="round"/>
<path d="M159.571 190.673C159.661 190.883 159.751 191.082 159.851 191.292L159.651 191.382C159.651 191.771 159.601 192.17 159.601 192.559C159.601 194.205 159.601 195.851 159.601 197.487H166.816C166.816 195.492 166.746 193.596 166.746 191.651C166.746 191.142 166.616 190.993 166.256 191.043C167.049 189.167 167.832 187.285 168.604 185.396L168.294 185.266L165.836 191.152C165.295 191.316 164.733 191.397 164.168 191.392C162.839 191.392 161.51 191.282 160.171 191.212C159.511 189.546 158.842 187.88 158.172 186.224C157.872 185.526 157.443 184.877 157.073 184.229C157.14 184.537 157.226 184.84 157.333 185.137C158.052 186.986 158.798 188.831 159.571 190.673Z" fill="#F8F8FB" stroke="#CACFDE" stroke-linecap="round" stroke-linejoin="round"/>
<path d="M154.145 180.239L154.545 180.707L154.145 180.239Z" fill="#F8F8FB" stroke="#CACFDE" stroke-linecap="round" stroke-linejoin="round"/>
<path d="M171.542 175.969L171.702 176.249L171.542 175.969Z" fill="#F8F8FB" stroke="#CACFDE" stroke-linecap="round" stroke-linejoin="round"/>
<path d="M186.661 164.486C186.145 162.362 185.02 160.435 183.423 158.939C182.367 158.033 181.136 157.354 179.806 156.944H178.807C179.778 157.774 180.57 158.792 181.135 159.937C182.813 163.139 182.893 166.551 182.364 170.003C182.034 172.108 181.514 174.193 181.085 176.298H180.955C180.937 176.595 180.904 176.892 180.855 177.186C180.495 178.862 180.116 180.548 179.746 182.174H180.905C181.345 181.475 181.824 180.807 182.224 180.089C182.823 178.981 183.373 177.834 183.943 176.707H184.082C184.612 175.33 185.132 173.943 185.701 172.577C186.421 171.002 186.864 169.314 187.01 167.589C187.042 166.543 186.925 165.498 186.661 164.486Z" fill="#F8F8FB" stroke="#CACFDE" stroke-linecap="round" stroke-linejoin="round"/>
<path d="M177.278 175.819L177.068 174.522C176.708 172.387 176.238 170.272 176.069 168.118C175.854 165.982 175.965 163.825 176.398 161.723C176.658 159.953 177.39 158.285 178.517 156.894L177.667 156.944C177.667 156.944 177.607 157.054 177.567 157.064C175.883 157.693 174.432 158.824 173.411 160.303C172.391 161.782 171.85 163.538 171.862 165.334C171.917 168.11 172.483 170.853 173.53 173.425C173.85 174.323 174.21 175.22 174.53 176.118H174.67C175.499 177.874 176.328 179.64 177.148 181.396C177.278 181.665 177.378 181.954 177.488 182.224H178.697L177.467 176.318L177.278 175.819Z" fill="#F8F8FB" stroke="#CACFDE" stroke-linecap="round" stroke-linejoin="round"/>
<path d="M181.065 176.248C181.495 174.143 182.064 172.058 182.344 169.953C182.873 166.501 182.794 163.09 181.115 159.887C180.55 158.742 179.758 157.724 178.787 156.894H178.467C177.34 158.285 176.608 159.953 176.348 161.723C175.915 163.825 175.804 165.982 176.019 168.118C176.239 170.272 176.708 172.387 177.018 174.522L177.228 175.819L177.388 176.308L178.617 182.214H179.676C180.046 180.538 180.425 178.852 180.785 177.226C180.834 176.932 180.867 176.635 180.885 176.338L181.065 176.248Z" fill="#F8F8FB" stroke="#CACFDE" stroke-linecap="round" stroke-linejoin="round"/>
<path d="M189.388 161.833C188.125 159.907 186.244 158.468 184.053 157.752C182.726 157.136 181.266 156.861 179.806 156.954C181.136 157.364 182.367 158.043 183.423 158.95C185.02 160.445 186.145 162.372 186.661 164.496C186.925 165.532 187.036 166.601 186.99 167.669C186.844 169.394 186.402 171.081 185.681 172.657C185.112 174.023 184.592 175.41 184.063 176.787H183.913C183.343 177.914 182.794 179.061 182.194 180.169C181.794 180.887 181.315 181.555 180.875 182.254L181.275 182.353L182.084 182.244C182.813 181.246 185.282 177.874 185.581 177.326H185.901C186.161 176.936 186.411 176.547 186.681 176.168C188.268 174.116 189.485 171.804 190.278 169.335C190.698 168.097 190.837 166.781 190.683 165.483C190.529 164.185 190.087 162.938 189.388 161.833Z" fill="#F8F8FB" stroke="#CACFDE" stroke-linecap="round" stroke-linejoin="round"/>
<path d="M172.141 176.657C172.137 176.697 172.137 176.737 172.141 176.777L172.441 177.136L172.951 178.134C173.74 179.281 174.52 180.438 175.309 181.595C175.437 181.839 175.637 182.037 175.882 182.164C176.127 182.291 176.405 182.339 176.678 182.304C176.924 182.288 177.171 182.288 177.417 182.304C177.308 182.034 177.208 181.745 177.078 181.476C176.258 179.72 175.429 177.954 174.6 176.198H174.46C174.12 175.3 173.76 174.402 173.46 173.505C172.413 170.932 171.847 168.19 171.792 165.414C171.78 163.618 172.321 161.862 173.341 160.383C174.362 158.904 175.813 157.773 177.497 157.144C177.497 157.144 177.567 157.064 177.597 157.024C175.998 156.923 174.404 157.291 173.011 158.082C168.494 160.366 165.706 164.895 168.254 170.532C169.239 172.43 170.33 174.272 171.522 176.049L171.682 176.328L171.802 176.537L172.122 176.737" fill="#F8F8FB"/>
<path d="M172.141 176.657C172.137 176.697 172.137 176.737 172.141 176.777L172.441 177.136L172.951 178.134C173.74 179.281 174.52 180.438 175.309 181.595C175.437 181.839 175.637 182.037 175.882 182.164C176.127 182.291 176.405 182.339 176.678 182.304C176.924 182.288 177.171 182.288 177.417 182.304C177.308 182.034 177.208 181.745 177.078 181.476C176.258 179.72 175.429 177.954 174.6 176.198H174.46C174.12 175.3 173.76 174.402 173.46 173.505C172.413 170.932 171.847 168.19 171.792 165.414C171.78 163.618 172.321 161.862 173.341 160.383C174.362 158.904 175.813 157.773 177.497 157.144C177.497 157.144 177.567 157.064 177.597 157.024C175.998 156.923 174.404 157.291 173.011 158.082C168.494 160.366 165.706 164.895 168.254 170.532C169.239 172.43 170.33 174.272 171.522 176.049L171.682 176.328L171.802 176.537L172.122 176.737" stroke="#CACFDE" stroke-linecap="round" stroke-linejoin="round"/>
<path d="M176.318 184.718C176.378 184.877 176.448 185.037 176.518 185.197L176.378 185.266C176.378 185.566 176.378 185.855 176.378 186.154C176.378 187.411 176.378 188.658 176.378 189.915H181.864C181.864 188.429 181.864 186.922 181.864 185.466C181.864 185.077 181.764 184.967 181.495 185.007L183.283 180.707L183.043 180.608C182.424 182.104 181.794 183.6 181.175 185.087C180.763 185.209 180.336 185.273 179.906 185.276C178.906 185.276 177.907 185.187 176.908 185.127C176.408 183.86 175.909 182.603 175.359 181.346C175.129 180.807 174.8 180.348 174.52 179.809C174.571 180.043 174.638 180.273 174.72 180.498C175.186 181.914 175.719 183.321 176.318 184.718Z" fill="#F8F8FB" stroke="#CACFDE" stroke-linecap="round" stroke-linejoin="round"/>
<path d="M172.182 176.777L172.482 177.137L172.182 176.777Z" fill="#F8F8FB" stroke="#CACFDE" stroke-linecap="round" stroke-linejoin="round"/>
<path d="M150.069 239.088C150.069 241.153 150.069 243.208 150.069 245.263C150.019 246.55 150.539 246.879 151.768 246.899C153.337 246.899 155.365 246.141 156.364 247.298C157.363 248.455 156.624 250.391 156.624 251.987C156.624 258.8 156.624 265.614 156.624 272.428C156.624 273.296 156.394 274.213 157.833 274.323C158.952 274.413 158.453 275.241 158.303 275.939C157.833 278.014 157.114 280.099 158.752 282.085C159.262 282.703 159.052 283.481 157.983 283.491C154.895 283.491 151.808 283.491 148.73 283.491C147.811 283.491 147.551 282.813 148.041 282.194C149.679 280.109 149.04 277.915 148.51 275.72C148.45 275.47 148.32 275.261 148.45 275.012C150.219 271.38 149.969 268.098 147.721 265.115C146.435 263.377 144.618 262.102 142.544 261.483C140.47 260.864 138.25 260.934 136.22 261.683C134.193 262.447 132.466 263.84 131.293 265.658C130.12 267.475 129.563 269.622 129.704 271.779C129.704 271.849 129.704 271.929 129.704 271.979C131.503 274.483 129.345 277.156 130.024 279.73C130.224 280.469 129.764 281.456 131.023 281.646C131.613 281.735 131.543 282.294 131.523 282.743C131.523 283.451 130.963 283.501 130.424 283.501H117.314C116.774 283.501 116.255 283.501 116.205 282.753C116.205 282.204 116.205 281.686 116.874 281.576C117.404 281.506 117.734 281.227 117.674 280.698C117.414 278.583 118.333 276.358 117.094 274.323C117.03 274.18 116.997 274.026 116.997 273.869C116.997 273.713 117.03 273.558 117.094 273.415C118.184 271.096 118.444 268.475 117.831 265.987C117.218 263.5 115.769 261.298 113.727 259.748C111.593 258.059 108.921 257.194 106.201 257.313C103.481 257.432 100.895 258.527 98.9177 260.397C97.7088 261.503 96.7415 262.847 96.0761 264.344C95.4108 265.841 95.0617 267.458 95.0507 269.096C95.0507 269.974 94.651 271.091 96.1598 271.32C96.6395 271.39 96.6095 272.079 96.3896 272.478C95.0307 274.972 96.0299 277.645 95.7502 280.209C95.6802 280.848 96.0799 281.077 96.6494 281.207C97.5288 281.446 97.309 282.204 97.249 282.813C97.1891 283.421 96.5795 283.481 96.0699 283.481H80.4217C79.8522 283.481 79.2126 283.551 79.1527 282.693C79.1527 281.995 79.1527 281.316 80.0121 281.227C81.0113 281.107 81.0713 280.508 81.0613 279.74C81.0613 277.935 81.0613 276.139 81.0613 274.343C81.0613 273.834 81.1312 273.346 80.6615 272.917C79.7622 272.178 79.4225 271.51 80.9114 271.091C81.371 270.971 81.4409 270.602 81.4709 270.193C81.8007 264.926 81.4709 259.838 76.9943 256.127C72.5177 252.416 67.5115 251.598 62.2655 254.042C57.3292 256.336 54.7112 260.436 54.4913 265.943C54.4314 267.22 54.4913 268.507 54.4913 269.794C54.4913 270.163 54.4914 270.792 54.7012 270.862C56.4699 271.43 55.7004 272.218 55.4206 273.535C54.911 275.73 55.2508 278.124 55.2508 280.439C55.2508 280.887 55.5905 281.087 56.0002 281.157C56.9295 281.326 56.7796 282.035 56.7597 282.663C56.7597 283.511 56.1002 283.481 55.5206 283.481H39.8824C39.123 283.481 38.6434 283.282 38.6634 282.404C38.6634 281.686 38.7633 281.027 39.6626 281.207C40.5619 281.386 40.5219 280.788 40.5219 280.209C40.5219 278.214 40.5219 276.219 40.5219 274.223C40.5219 273.904 40.5219 273.445 40.402 273.286C39.183 272.218 39.3229 271.799 40.6618 270.672C41.5911 269.894 41.1015 267.679 40.7417 266.243C40.0763 263.502 38.4498 261.089 36.1568 259.442C33.8637 257.795 31.0557 257.023 28.2413 257.264C25.3683 257.591 22.7179 258.967 20.7996 261.127C18.8813 263.287 17.8305 266.079 17.8491 268.966C17.8491 269.734 17.8491 270.502 17.8491 271.28C17.8491 271.47 17.7692 271.739 17.8491 271.839C20.0974 274.373 17.3195 277.107 18.1889 279.72C18.4287 280.449 17.989 281.416 19.2481 281.616C19.8076 281.696 19.7376 282.284 19.7077 282.733C19.6777 283.182 19.248 283.441 18.7584 283.441C14.3917 283.441 10.015 283.441 5.6483 283.441C4.3293 283.441 4.34931 282.204 5.04878 281.755C6.04803 281.087 5.92811 280.249 5.85817 279.431C5.71827 277.625 6.45772 275.71 5.17869 274.044C5.11455 273.935 5.08074 273.811 5.08074 273.685C5.08074 273.558 5.11455 273.434 5.17869 273.326C6.78747 271.939 6.23787 270.133 5.96807 268.507C5.60954 266.458 4.48442 264.621 2.82049 263.369C1.38274 262.11 -0.396925 261.306 -2.29313 261.057C-4.18934 260.808 -6.11685 261.127 -7.83148 261.973C-9.6051 262.699 -11.1038 263.966 -12.114 265.592C-13.1242 267.219 -13.5943 269.122 -13.4572 271.031C-13.4572 272.258 -13.9968 273.635 -12.5179 274.682C-12.1382 274.962 -12.7678 276.478 -12.7078 277.406C-12.6179 278.952 -13.1774 280.548 -12.0683 282.035C-11.5587 282.733 -11.9683 283.491 -13.0675 283.481C-16.0652 283.481 -18.983 283.481 -21.9308 283.481C-23.0799 283.481 -23.3797 282.783 -22.7801 281.995C-21.2113 280 -21.8409 277.775 -22.3205 275.67C-22.5004 274.852 -22.6003 274.383 -21.7609 274.313C-20.362 274.194 -20.352 273.316 -20.362 272.268C-20.362 264.819 -20.3786 257.364 -20.4119 249.902C-20.4119 249.263 -20.4119 248.615 -20.4119 247.976C-20.4119 247.158 -20.0322 246.829 -19.2328 246.849C-18.0138 246.849 -16.7847 246.769 -15.5656 246.849C-14.1767 246.969 -13.787 246.38 -13.8369 245.073C-13.9169 243.078 -13.8369 241.083 -13.8369 239.088H6.63761C6.63761 241.003 6.63761 242.928 6.63761 244.844C6.63761 246.131 7.12719 247.078 8.71599 246.839C9.30554 246.749 9.71523 246.58 9.71523 245.931C9.71523 245.672 9.71523 245.412 9.71523 245.163C9.71523 241.033 9.71526 241.033 13.992 241.033C17.4094 241.033 17.4094 241.033 17.4094 237.551C17.4094 235.636 17.4094 233.72 17.4094 231.805H41.741C41.741 234.429 41.741 237.062 41.6711 239.686C41.6711 240.684 41.9808 241.113 43 241.073C44.0193 241.033 44.8487 241.073 44.8487 239.716C44.8487 238.359 44.9186 237.023 44.8487 235.726C44.7188 234.01 45.2584 233.232 47.107 233.391C48.9556 233.551 50.5743 233.391 52.303 233.441C53.652 233.441 54.1117 232.922 54.0917 231.615C54.0917 228.623 54.0917 225.72 54.0917 222.777C63.4846 222.597 72.8775 222.597 82.2704 222.777C82.2704 225.769 82.2703 228.762 82.2104 231.815C82.2104 233.072 82.6301 233.511 83.8891 233.451C85.8077 233.371 87.7262 233.451 89.6447 233.451C90.7139 233.451 91.1636 233.78 91.1137 234.878C91.0537 236.354 91.1736 237.87 91.1137 239.297C91.0537 240.724 91.4534 241.223 92.9223 241.203C94.3912 241.183 94.7109 240.734 94.671 239.417C94.581 236.923 94.621 234.429 94.611 231.925H118.593C118.533 234.488 118.613 237.052 118.833 239.606C118.993 240.943 119.502 241.203 120.641 241.143C121.99 241.083 123.339 241.193 124.638 241.143C125.767 241.083 126.327 241.432 126.237 242.639C126.177 243.467 126.237 244.315 126.237 245.143C126.187 246.141 126.237 246.989 127.686 247.009C129.135 247.029 129.425 246.43 129.385 245.173C129.305 243.178 129.385 241.183 129.385 239.187L150.069 239.088Z" fill="#F8F8FB" stroke="#CACFDE" stroke-linecap="round" stroke-linejoin="round"/>
<path d="M42.8894 214.806C45.2235 214.409 47.5151 213.794 49.7342 212.97C51.9026 212.032 54.2708 211.274 53.2116 207.802C54.5706 209.129 55.9595 208.8 57.2685 208.8C64.8328 208.8 72.397 208.8 79.9613 208.8C80.6408 208.8 81.3902 209.159 81.9598 208.231C82.3395 207.643 82.8991 208.231 82.7892 208.8C82.2696 211.394 84.1882 212.082 85.9368 212.86C88.3182 213.802 90.7988 214.472 93.3312 214.856C92.6998 215.392 91.8918 215.676 91.063 215.654C86.5313 216.196 81.9622 216.359 77.4033 216.143C72.7468 215.853 68.0603 216.272 63.4138 216.143C58.2078 215.953 52.9918 216.432 47.7857 216.083C46.097 215.883 44.3583 215.873 42.8894 214.806Z" fill="#F8F8FB" stroke="#CACFDE" stroke-linecap="round" stroke-linejoin="round"/>
<path d="M83.7385 225.61C83.7385 225.44 83.7385 225.271 83.7385 225.101L84.2682 224.951C86.5727 224.744 88.8347 224.203 90.983 223.345C92.8916 222.627 94.5903 221.779 93.8409 218.746C95.1799 220.023 96.4189 219.794 97.608 219.794H116.654C117.443 219.794 118.312 220.003 118.942 218.896C118.642 223.086 121.94 223.206 124.438 224.064C126.023 224.524 127.63 224.903 129.254 225.201C128.595 226.198 127.485 226.089 126.536 226.308C124.262 226.744 121.946 226.921 119.631 226.837C111.218 226.837 102.804 226.837 94.3904 226.837C90.7966 227.009 87.1987 226.594 83.7385 225.61Z" fill="#F8F8FB" stroke="#CACFDE" stroke-linecap="round" stroke-linejoin="round"/>
<path d="M6.62683 225.61C6.7967 224.662 7.62605 224.991 8.16564 224.892C10.1263 224.561 12.0528 224.054 13.9213 223.375C15.8299 222.637 17.4586 221.729 16.7591 218.746C17.1723 219.162 17.6756 219.476 18.23 219.667C18.7844 219.857 19.3751 219.918 19.9567 219.844C26.4418 219.844 32.9469 219.844 39.412 219.844C40.2614 219.844 41.1707 220.053 41.8602 218.956C41.4505 222.657 44.2183 223.086 46.4966 223.894C48.2498 224.519 50.0839 224.888 51.9425 224.991C52.3722 225.869 51.5228 225.799 51.1731 225.909C49.4037 226.482 47.5572 226.781 45.6972 226.797C36.2744 226.797 26.8515 226.797 17.4387 226.897C13.7887 227.054 10.1373 226.62 6.62683 225.61Z" fill="#F8F8FB" stroke="#CACFDE" stroke-linecap="round" stroke-linejoin="round"/>
<path d="M82.2296 222.727C72.8367 222.567 63.4438 222.567 54.0509 222.727C52.3322 222.727 50.6136 222.617 48.8949 222.637C47.8157 222.637 47.0562 222.338 47.2461 221.141C47.4659 219.714 46.7265 219.315 45.5474 218.956C44.512 218.56 43.5096 218.083 42.5497 217.529C47.9609 218.207 53.4155 218.477 58.8673 218.337C69.9789 218.178 81.0905 218.656 92.1921 217.908C92.1921 217.968 92.1921 218.078 92.1921 218.088C90.0337 218.796 88.4149 219.963 88.4149 222.527L87.2558 222.677L82.2296 222.727Z" fill="#F8F8FB" stroke="#CACFDE" stroke-linecap="round" stroke-linejoin="round"/>
<path d="M-22.2809 234.09L-23.5 233.451C-22.0911 233.142 -20.9819 232.882 -19.8627 232.653C-18.3488 232.361 -16.8915 231.829 -15.546 231.077C-15.1163 230.827 -14.4268 230.578 -14.5468 230.079C-14.8365 227.914 -13.4776 228.712 -12.3984 228.722C-6.49289 228.722 -0.597319 228.722 5.30821 228.722C5.68333 228.775 6.0656 228.716 6.40736 228.553C7.31667 227.785 7.40659 228.413 7.26669 229.072C7.03687 230.408 7.95621 230.877 8.87552 231.356C11.1238 232.523 13.6319 232.813 16.2399 233.401C14.6112 234.548 12.8225 234.399 11.2437 234.828H9.91471C-0.657288 234.708 -11.0694 235.347 -21.4316 234.399L-21.8812 234.259L-22.2809 234.09Z" fill="#F8F8FB" stroke="#CACFDE" stroke-linecap="round" stroke-linejoin="round"/>
<path d="M158.932 233.212C159.121 233.311 159.331 233.411 159.261 233.69C156.245 234.55 153.113 234.937 149.978 234.838C142.99 234.838 135.996 234.838 128.994 234.838C125.923 234.929 122.856 234.549 119.901 233.71C120.261 232.902 121.07 233.112 121.7 232.992C123.146 232.735 124.568 232.352 125.947 231.845C127.605 231.206 129.214 230.528 128.804 228.463H150.308C149.868 230.618 151.557 231.256 153.306 231.895C154.91 232.511 156.591 232.907 158.302 233.072C158.326 233.131 158.363 233.183 158.411 233.225C158.46 233.266 158.518 233.294 158.58 233.308C158.642 233.322 158.706 233.32 158.768 233.304C158.829 233.287 158.885 233.255 158.932 233.212Z" fill="#F8F8FB" stroke="#CACFDE" stroke-linecap="round" stroke-linejoin="round"/>
<path d="M118.492 231.855H94.5104C93.4412 231.855 92.372 231.795 91.3028 231.795C88.7547 231.795 88.7047 231.725 88.7746 229.082C89.7016 229.315 90.6483 229.462 91.6025 229.52C102.494 229.351 113.396 230.049 124.278 229.141C124.378 231.765 124.368 231.775 121.7 231.795C120.651 231.785 119.571 231.825 118.492 231.855Z" fill="#F8F8FB" stroke="#CACFDE" stroke-linecap="round" stroke-linejoin="round"/>
<path d="M41.7402 231.805H17.4087C16.3395 231.805 15.2703 231.745 14.2011 231.745C11.643 231.745 11.623 231.745 11.663 229.042C12.5953 229.266 13.5445 229.412 14.5009 229.481C25.3926 229.301 36.2943 229.999 47.1761 229.091C47.316 231.655 47.2461 231.725 44.788 231.735L41.7402 231.805Z" fill="#F8F8FB" stroke="#CACFDE" stroke-linecap="round" stroke-linejoin="round"/>
<path d="M92.202 217.918C81.1004 218.666 69.9889 218.188 58.8773 218.347C53.4254 218.487 47.9708 218.217 42.5596 217.539C40.5611 216.651 40.1914 215.883 41.3506 214.826C41.0508 215.973 42.08 215.823 42.6096 216.023C45.1193 216.817 47.7412 217.201 50.3737 217.16C62.1714 217.16 73.9659 217.16 85.7569 217.16C88.9707 217.23 92.1645 216.639 95.1398 215.424C95.2297 217.509 93.4111 217.36 92.202 217.918Z" fill="#F8F8FB" stroke="#CACFDE" stroke-linecap="round" stroke-linejoin="round"/>
<path d="M150.068 239.088H129.254C128.305 239.088 127.345 238.968 126.396 239.018C124.747 239.088 123.948 238.479 124.328 236.753C126.236 236.903 128.145 237.182 130.053 237.202C136.728 237.252 143.403 237.202 150.038 237.202C151.755 237.218 153.463 236.956 155.094 236.424C155.094 238.419 154.185 239.317 152.097 239.018C151.42 238.981 150.741 239.005 150.068 239.088Z" fill="#F8F8FB" stroke="#CACFDE" stroke-linecap="round" stroke-linejoin="round"/>
<path d="M6.65672 239.138H-13.8178C-14.817 239.138 -15.8163 238.988 -16.8155 239.038C-18.4842 239.118 -19.1637 238.429 -18.814 236.773C-8.66073 237.482 1.52969 237.482 11.6829 236.773C12.0527 238.459 11.3232 239.088 9.68446 239.008C8.66523 238.978 7.65597 239.098 6.65672 239.138Z" fill="#F8F8FB" stroke="#CACFDE" stroke-linecap="round" stroke-linejoin="round"/>
<path d="M124.298 229.121C113.416 230.029 102.514 229.331 91.6226 229.5C90.6683 229.442 89.7216 229.295 88.7947 229.062L85.2773 227.555C85.3473 227.046 85.717 227.196 85.9968 227.256C88.2512 227.788 90.5663 228.02 92.8816 227.944C104.743 227.645 116.644 228.772 128.475 227.166C127.236 228.134 125.657 228.403 124.298 229.121Z" fill="#F8F8FB" stroke="#CACFDE" stroke-linecap="round" stroke-linejoin="round"/>
<path d="M47.1761 229.121C36.2944 230.029 25.3927 229.331 14.5009 229.51C13.5445 229.442 12.5953 229.296 11.663 229.071C10.6638 228.393 9.33476 228.523 8.51538 227.545C10.1342 227.306 11.693 227.904 13.2918 227.874C25.9422 227.685 38.6226 228.782 51.2631 227.146C50.014 228.124 48.4951 228.333 47.1761 229.121Z" fill="#F8F8FB" stroke="#CACFDE" stroke-linecap="round" stroke-linejoin="round"/>
<path d="M51.253 227.146C38.6226 228.782 25.9422 227.685 13.2818 227.874C11.683 227.874 10.1242 227.306 8.50542 227.545C6.75674 227.156 6.59685 226.997 6.61684 225.61C10.1279 226.616 13.7793 227.048 17.4287 226.887C26.8415 226.887 36.2644 226.827 45.6872 226.787C47.5472 226.771 49.3938 226.472 51.1631 225.899C51.5129 225.789 52.3622 225.899 51.9325 224.981C52.602 224.742 52.9318 225.081 52.8219 225.69C52.8062 226.09 52.6324 226.468 52.3385 226.741C52.0445 227.014 51.6543 227.16 51.253 227.146Z" fill="#F8F8FB" stroke="#CACFDE" stroke-linecap="round" stroke-linejoin="round"/>
<path d="M128.475 227.166C116.644 228.772 104.743 227.645 92.8816 227.944C90.5663 228.02 88.2512 227.788 85.9968 227.256C85.717 227.196 85.3473 227.046 85.2773 227.555C84.348 227.236 83.4187 226.917 83.7385 225.56C87.1959 226.561 90.7938 226.993 94.3904 226.837C102.804 226.837 111.218 226.837 119.631 226.837C121.946 226.921 124.262 226.744 126.536 226.308C127.485 226.089 128.595 226.159 129.254 225.201C130.663 226.548 129.464 226.817 128.475 227.166Z" fill="#F8F8FB" stroke="#CACFDE" stroke-linecap="round" stroke-linejoin="round"/>
<path d="M95.1398 215.424C92.1646 216.639 88.9707 217.23 85.757 217.16C73.9659 217.2 62.1714 217.2 50.3737 217.16C47.7412 217.201 45.1193 216.817 42.6096 216.023C42.08 215.843 41.0508 216.023 41.3506 214.826H42.8894C44.3583 215.893 46.097 215.903 47.7857 216.023C52.9918 216.372 58.2078 215.893 63.4138 216.083C68.0903 216.262 72.7767 215.843 77.4032 216.083C81.9622 216.299 86.5313 216.136 91.0629 215.594C91.8918 215.616 92.6997 215.332 93.3312 214.796C93.9807 214.965 94.8301 214.367 95.1398 215.424Z" fill="#F8F8FB" stroke="#CACFDE" stroke-linecap="round" stroke-linejoin="round"/>
<path d="M155.134 236.444C153.503 236.975 151.795 237.238 150.078 237.222C143.403 237.222 136.728 237.222 130.093 237.222C128.185 237.222 126.276 236.923 124.368 236.773C123.548 236.005 122.239 236.185 121.5 235.267C127.875 236.025 134.27 235.726 140.655 235.696C145.742 235.696 150.848 236.135 155.924 235.317C156.374 235.237 157.073 234.858 157.413 235.646L155.134 236.444Z" fill="#F8F8FB" stroke="#CACFDE" stroke-linecap="round" stroke-linejoin="round"/>
<path d="M11.673 236.793C1.51979 237.501 -8.67063 237.501 -18.8239 236.793C-19.2935 236.155 -20.3827 236.554 -20.7224 235.686C-20.0884 235.621 -19.4512 235.591 -18.8139 235.596C-9.98057 235.925 -1.14724 235.666 7.68608 235.726C8.89655 235.829 10.1157 235.752 11.3033 235.496L13.122 235.746C12.9221 236.554 11.9528 236.195 11.673 236.793Z" fill="#F8F8FB" stroke="#CACFDE" stroke-linecap="round" stroke-linejoin="round"/>
<path d="M157.373 235.636C157.033 234.848 156.373 235.227 155.884 235.307C150.808 236.125 145.702 235.656 140.615 235.686C134.23 235.686 127.835 236.015 121.46 235.257C120.061 235.027 119.841 234.808 119.981 233.71C122.936 234.549 126.003 234.929 129.074 234.838C136.049 234.838 143.044 234.838 150.058 234.838C153.193 234.937 156.325 234.55 159.341 233.69C159.341 234.987 159.261 235.067 157.373 235.636Z" fill="#F8F8FB" stroke="#CACFDE" stroke-linecap="round" stroke-linejoin="round"/>
<path d="M87.2258 222.687L88.3859 222.537C88.3415 222.648 88.2685 222.744 88.1743 222.817C88.08 222.89 87.9681 222.936 87.8499 222.951C87.7317 222.967 87.6115 222.95 87.5018 222.904C87.3921 222.857 87.2968 222.782 87.2258 222.687Z" fill="#F8F8FB" stroke="#CACFDE" stroke-linecap="round" stroke-linejoin="round"/>
<path d="M84.2784 224.952L83.7484 225.102C83.7669 225.051 83.7971 225.006 83.8365 224.969C83.8759 224.933 83.9234 224.906 83.9751 224.891C84.0268 224.877 84.0813 224.874 84.134 224.885C84.1868 224.895 84.2362 224.918 84.2784 224.952Z" fill="#F8F8FB" stroke="#CACFDE" stroke-linecap="round" stroke-linejoin="round"/>
<path d="M99.3367 159.059C99.602 156.43 100.646 153.94 102.334 151.906C104.381 149.346 107.359 147.696 110.618 147.317C118.842 146.21 123.758 151.607 125.207 157.463C125.57 159.484 125.657 161.544 125.467 163.588C125.467 163.997 124.568 164.656 124.018 164.716C122.618 164.82 121.213 164.84 119.811 164.775C109.033 164.775 98.2508 164.775 87.4656 164.775C86.6727 164.696 85.8895 164.539 85.1274 164.307C85.3162 163.427 85.6326 162.58 86.0667 161.793C87.2848 160.179 88.9724 158.98 90.8987 158.361C92.825 157.741 94.896 157.731 96.8285 158.331C97.588 158.501 98.3774 158.78 99.3367 159.059Z" fill="#F8F8FB" stroke="#CACFDE" stroke-linecap="round" stroke-linejoin="round"/>
<path d="M264.851 56.4847C267.679 57.0434 269.758 58.4799 270.557 61.3331C270.805 62.1702 270.883 63.0482 270.788 63.9159C270.692 64.7836 270.425 65.6237 270.001 66.3871C269.577 67.1504 269.004 67.8218 268.318 68.362C267.631 68.9022 266.843 69.3005 266 69.5335C265.698 69.6248 265.418 69.7773 265.177 69.9815C264.936 70.1858 264.74 70.4374 264.601 70.7207C264.118 72.6677 263.085 74.4355 261.625 75.8146C260.166 77.1937 258.342 78.1263 256.368 78.502C254.436 78.9601 252.414 78.859 250.538 78.2106C248.662 77.5621 247.01 76.3932 245.776 74.8408L245.186 74.1724C244.342 75.5123 243.158 76.6056 241.754 77.3415C240.35 78.0773 238.776 78.4295 237.192 78.3623C235.993 78.3302 234.814 78.0472 233.732 77.5317C232.649 77.0162 231.687 76.2796 230.907 75.3695C227.46 71.4589 228.159 66.1915 232.736 62.0514C231.177 59.2282 231.147 56.4149 233.455 53.9807C235.763 51.5466 238.451 51.4867 241.349 52.7637C241.699 50.11 243.008 48.2245 245.706 47.7756C248.404 47.3267 250.122 48.5238 251.402 50.8283C253.95 47.7357 257.017 46.5186 260.774 48.1746C263.922 49.4615 265.261 52.2948 264.851 56.4847Z" fill="#F8F8FB" stroke="#CACFDE" stroke-linecap="round" stroke-linejoin="round"/>
<path d="M392.635 103.403C402.947 102.914 408.243 105.537 410.621 112.381C411.67 115.231 411.772 118.343 410.912 121.255C410.052 124.168 408.275 126.726 405.845 128.552C401.368 131.864 394.483 133.54 387.439 127.694C384.281 129.33 381.503 131.216 378.446 132.243C375.038 133.391 371.761 132.044 368.693 129.979C365.136 132.543 361.438 133.161 357.471 130.587C356.862 130.188 355.473 130.787 354.534 131.116C350.983 132.382 347.098 132.355 343.565 131.039C340.033 129.723 337.08 127.203 335.228 123.923C333.427 120.661 332.826 116.872 333.529 113.214C334.231 109.555 336.193 106.257 339.075 103.891C343.162 100.559 347.899 99.6316 353.305 100.779C353.305 96.4791 354.124 92.3889 357.661 89.8749C359.83 88.2838 362.36 87.2554 365.026 86.8821C371.231 86.2336 375.648 89.9746 377.946 97.0577C385.2 92.5684 391.266 95.7808 392.635 103.403Z" fill="#F8F8FB" stroke="#CACFDE" stroke-linecap="round" stroke-linejoin="round"/>
<path d="M220.025 216.711C220.243 216.257 220.291 215.74 220.161 215.254C220.031 214.767 219.731 214.343 219.316 214.057C218.796 213.668 218.317 213.199 217.747 212.681C217.745 213.368 217.701 214.054 217.617 214.736C217.553 215.229 217.306 215.681 216.925 216.002C216.544 216.323 216.057 216.491 215.559 216.472C215.295 216.444 215.039 216.365 214.806 216.238C214.573 216.111 214.368 215.939 214.202 215.732C214.036 215.525 213.914 215.287 213.841 215.032C213.769 214.777 213.748 214.51 213.78 214.247C214.27 211.254 214.839 208.371 215.389 205.428C216.409 205.042 217.292 204.362 217.923 203.473C218.555 202.585 218.908 201.529 218.936 200.44C219.206 197.447 220.755 195.951 223.792 195.911C226.121 195.911 228.459 195.911 230.787 195.911C234.514 195.911 236.013 197.298 236.343 201.009C236.415 202.007 236.798 202.958 237.438 203.728C238.077 204.499 238.941 205.051 239.91 205.308C240.34 207.872 240.78 210.436 241.209 213C241.305 213.487 241.362 213.981 241.379 214.476C241.399 214.955 241.24 215.424 240.934 215.792C240.628 216.161 240.195 216.403 239.72 216.472C239.247 216.506 238.778 216.371 238.395 216.092C238.013 215.812 237.742 215.406 237.632 214.945C237.494 214.096 237.4 213.24 237.352 212.381C236.483 214.028 234.354 214.466 235.054 216.681C235.134 216.881 235.164 217.16 235.314 217.26C237.222 218.477 237.702 220.332 237.682 222.437C237.682 224.323 237.682 226.208 237.682 228.104C237.608 228.689 237.481 229.267 237.302 229.83C236.981 229.89 236.669 229.991 236.373 230.129C230.957 233.8 225.541 237.478 220.125 241.163C219.366 241.671 218.526 242.08 217.727 242.539V241.891C217.747 241.782 217.747 241.67 217.727 241.562C217.727 239.337 217.727 237.112 217.727 234.888V234.548C217.727 230.508 217.827 226.458 217.727 222.417C217.62 221.486 217.746 220.542 218.095 219.671C218.444 218.801 219.004 218.03 219.725 217.429C219.885 217.26 219.885 216.95 220.025 216.711Z" fill="#F8F8FB" stroke="#CACFDE" stroke-linecap="round" stroke-linejoin="round"/>
<path d="M199.821 254.102L200.82 253.553H203.358H204.007C204.205 253.919 204.454 254.255 204.747 254.551C206.597 255.843 208.761 256.615 211.012 256.785C213.913 257.258 216.885 257.039 219.686 256.147C221.16 255.69 222.492 254.862 223.553 253.743C222.121 253.429 220.642 253.392 219.196 253.633C216.578 254.391 213.95 254.172 211.312 254.172C210.633 254.071 209.975 253.862 209.363 253.553H211.682C213.94 253.553 213.68 253.733 213.68 251.468C213.68 246.051 213.68 240.634 213.68 235.217C213.574 234.094 213.37 232.982 213.071 231.895C212.861 231.396 212.641 230.897 212.441 230.388C212.282 230.115 212.177 229.813 212.131 229.501C212.131 227.066 212.301 224.642 212.341 222.218C212.302 221.396 212.219 220.577 212.091 219.764L216.088 218.597C215.563 219.992 215.322 221.477 215.379 222.966C215.379 230.339 215.449 237.711 215.379 245.073C215.329 245.841 215.461 246.61 215.765 247.317C216.069 248.025 216.536 248.65 217.127 249.144C218.182 249.933 219.433 250.419 220.745 250.55H234.424C238.072 250.331 240.08 248.256 240.08 244.684C240.08 238.978 240.08 233.272 240.08 227.565C240.08 224.572 240.4 221.58 239.491 218.696C241.849 219.475 244.237 220.153 246.555 221.041C247.453 221.351 248.267 221.864 248.933 222.541C249.599 223.218 250.098 224.039 250.392 224.941C251.941 230.119 253.32 235.337 254.769 240.544C254.398 240.48 254.034 240.383 253.68 240.255C252.832 239.773 251.943 239.369 251.022 239.048C247.075 238.17 242.608 240.315 242.748 245.243C242.828 248.006 242.748 250.79 242.748 253.563C241.089 253.563 239.421 253.563 237.752 253.563C237.285 253.589 236.818 253.513 236.383 253.341C235.948 253.168 235.556 252.904 235.234 252.565C234.559 252.047 233.766 251.705 232.926 251.568C231.137 251.139 229.998 252.146 229.098 253.563C227.6 253.363 226.72 254.461 225.901 255.319C224.499 256.666 222.781 257.64 220.905 258.152C217.806 259.291 214.479 259.674 211.202 259.269C208.431 258.891 205.774 257.925 203.408 256.436C202.189 255.668 201 254.88 199.821 254.102Z" fill="#F8F8FB" stroke="#CACFDE" stroke-linecap="round" stroke-linejoin="round"/>
<path d="M197.303 255.498L199.371 254.261C199.717 254.968 200.136 255.636 200.62 256.256C202.02 257.8 203.681 259.087 205.526 260.057C208.897 261.948 212.827 262.595 216.628 261.883C220.199 261.352 223.497 259.662 226.011 257.075C227.01 255.987 228.009 254.94 229.068 253.872C230.325 254.731 231.367 255.867 232.114 257.192C232.861 258.517 233.292 259.996 233.375 261.514V261.883C233.375 262.432 233.375 262.99 233.375 263.549C233.205 263.679 232.936 263.788 232.886 263.958C231.996 266.751 229.888 268.387 227.39 269.535H200.47C199.221 269.177 198.068 268.543 197.097 267.679C196.127 266.816 195.364 265.745 194.864 264.547C193.865 261.963 194.115 257.783 197.313 255.488L197.562 255.628L197.303 255.498ZM230.278 255.339C226.8 261.634 221.154 264.227 214.41 264.517C207.665 264.806 201.979 261.993 197.742 256.057C198.941 260.855 205.566 268.028 215.109 267.23C217.37 267.093 219.582 266.512 221.618 265.519C223.653 264.526 225.472 263.141 226.97 261.444C228.621 259.763 229.755 257.644 230.238 255.339H230.278Z" fill="#F8F8FB" stroke="#CACFDE" stroke-linecap="round" stroke-linejoin="round"/>
<path d="M262.403 272.557C261.964 270.423 261.054 269.644 258.946 269.565C257.577 269.565 256.198 269.565 254.829 269.505H200.45C199.021 269.505 197.602 269.505 196.173 269.575C194.175 269.575 193.266 270.443 192.886 272.488C192.506 272.488 192.116 272.488 191.727 272.577C190.444 272.721 189.255 273.316 188.372 274.255C187.49 275.195 186.971 276.418 186.91 277.705C186.817 279.02 187.218 280.323 188.035 281.36C188.851 282.396 190.025 283.092 191.327 283.312C191.987 283.428 192.656 283.478 193.326 283.461H261.774C262.493 283.48 263.212 283.433 263.922 283.322C265.251 283.092 266.446 282.374 267.271 281.308C268.096 280.243 268.491 278.907 268.379 277.565C268.159 274.652 265.911 272.747 262.403 272.557Z" fill="#F8F8FB" stroke="#CACFDE" stroke-linecap="round" stroke-linejoin="round"/>
<path d="M239.87 205.318C238.901 205.062 238.037 204.509 237.397 203.738C236.758 202.968 236.375 202.017 236.303 201.019C235.973 197.308 234.474 195.931 230.747 195.921C228.419 195.921 226.081 195.921 223.752 195.921C220.755 195.921 219.166 197.407 218.896 200.45C218.868 201.539 218.515 202.595 217.883 203.484C217.252 204.372 216.369 205.052 215.349 205.438C215.349 202.735 215.089 199.971 215.509 197.318C215.998 194.274 217.632 191.531 220.077 189.649C222.523 187.768 225.596 186.889 228.669 187.192C231.679 187.47 234.482 188.844 236.544 191.051C238.605 193.259 239.782 196.146 239.85 199.163C239.96 201.218 239.87 203.263 239.87 205.318ZM227.52 193.247C228.339 193.247 229.168 193.307 229.988 193.247C230.157 193.261 230.326 193.225 230.475 193.144C230.624 193.062 230.746 192.939 230.825 192.79C230.905 192.64 230.939 192.471 230.923 192.302C230.908 192.133 230.843 191.973 230.737 191.841C230.42 191.255 229.943 190.772 229.36 190.449C228.778 190.126 228.115 189.975 227.45 190.015C226.841 190.009 226.242 190.166 225.715 190.47C225.188 190.773 224.752 191.212 224.452 191.741C223.972 192.549 224.452 193.217 225.391 193.287C226.121 193.287 226.88 193.247 227.56 193.247H227.52Z" fill="#F8F8FB" stroke="#CACFDE" stroke-linecap="round" stroke-linejoin="round"/>
<path d="M239.431 218.706C240.34 221.619 240 224.612 240.02 227.575C240.02 233.281 240.02 238.988 240.02 244.694C240.02 248.266 238.022 250.341 234.364 250.56C234.794 250.231 235.244 249.932 235.634 249.562C236.194 249.128 236.68 248.606 237.072 248.016C237.932 246.37 237.412 245.552 235.614 245.552C234.729 245.492 233.84 245.492 232.956 245.552C232.167 245.71 231.39 245.917 230.627 246.171C230.108 246.29 229.988 246.49 230.288 246.979C230.386 247.239 230.427 247.519 230.408 247.797C230.106 247.717 229.809 247.62 229.518 247.507C228.935 247.13 228.323 246.796 227.69 246.51C226.77 246.23 226.131 246.819 225.531 247.447C225.391 247.597 225.071 247.577 224.842 247.637C224.838 247.389 224.864 247.141 224.922 246.899C224.982 246.729 225.171 246.59 225.291 246.45C224.752 246.038 224.136 245.737 223.478 245.566C222.821 245.395 222.137 245.356 221.464 245.452C220.69 245.527 219.91 245.527 219.136 245.452C217.707 245.243 217.138 246.001 218.027 247.368C218.824 248.475 219.713 249.512 220.685 250.47C219.373 250.339 218.122 249.853 217.068 249.064C216.476 248.571 216.009 247.945 215.705 247.238C215.401 246.53 215.269 245.761 215.319 244.993C215.399 237.631 215.319 230.259 215.319 222.886C215.262 221.397 215.503 219.912 216.028 218.517L220.025 216.621C219.905 216.861 219.856 217.17 219.666 217.32C218.944 217.921 218.384 218.691 218.035 219.562C217.687 220.432 217.56 221.376 217.667 222.308C217.757 226.298 217.667 230.398 217.667 234.439C217.667 234.439 217.537 234.518 217.547 234.528C217.581 234.614 217.621 234.698 217.667 234.778C217.667 237.003 217.667 239.227 217.667 241.452V241.781V242.43C217.667 244.804 217.607 244.425 219.726 244.425C220.275 244.425 220.835 244.425 221.384 244.425C222.469 244.439 223.549 244.278 224.582 243.946C225.939 243.563 227.363 243.471 228.759 243.677C230.038 243.766 231.277 244.255 232.556 244.405C233.717 244.48 234.882 244.48 236.043 244.405C237.512 244.405 237.652 244.265 237.652 242.799C237.652 238.868 237.652 234.937 237.652 231.007C237.579 230.549 237.444 230.102 237.252 229.68C237.431 229.117 237.558 228.54 237.632 227.954C237.632 226.059 237.632 224.173 237.632 222.288C237.632 220.183 237.172 218.297 235.264 217.11C235.114 217.01 235.084 216.731 235.004 216.531C236.803 216.741 238.002 217.958 239.431 218.706Z" fill="#F8F8FB" stroke="#CACFDE" stroke-linecap="round" stroke-linejoin="round"/>
<path d="M212.081 219.774C212.209 220.587 212.292 221.406 212.331 222.228C212.331 224.652 212.171 227.076 212.121 229.511C212.167 229.823 212.272 230.125 212.431 230.398C212.631 230.907 212.851 231.396 213.061 231.905L211.062 235.127C208.783 235.799 206.363 235.83 204.067 235.217C203.523 234.763 203.109 234.173 202.868 233.507C202.628 232.84 202.569 232.122 202.698 231.426C202.718 231.21 202.718 230.993 202.698 230.777C202.698 228.403 202.698 226.019 202.698 223.645C202.633 223.065 202.763 222.48 203.069 221.982C203.375 221.485 203.839 221.105 204.387 220.901C204.687 220.771 204.847 220.313 205.087 220.003C205.326 219.694 205.636 219.006 206.036 218.866C207.035 218.497 207.385 218.866 207.465 219.864C207.525 220.662 207.655 221.45 207.755 222.238L207.475 223.136H209.753V220.771C209.753 220.562 209.753 220.342 209.803 220.133C209.903 219.624 209.473 218.826 210.443 218.756C211.112 218.756 211.891 218.686 212.081 219.774Z" fill="#F8F8FB" stroke="#CACFDE" stroke-linecap="round" stroke-linejoin="round"/>
<path d="M233.355 263.569C233.355 263.01 233.355 262.452 233.355 261.903L233.695 261.584H235.014C235.124 261.833 235.174 262.222 235.354 262.302C236.635 262.938 237.973 263.452 239.351 263.838C242.139 264.437 244.996 264.986 247.844 264.197C250.13 263.605 252.379 262.879 254.579 262.023C255.676 261.375 256.684 260.586 257.577 259.678C255.578 259.469 254.03 259.379 252.581 260.277C249.523 262.122 246.106 262.272 242.668 262.172C242.458 262.172 242.268 261.773 242.069 261.554C242.977 261.545 243.874 261.358 244.709 261.002C245.545 260.646 246.301 260.128 246.935 259.479C247.646 258.723 248.27 257.89 248.794 256.995C249.543 255.758 250.063 255.478 251.512 255.847C252.421 256.077 252.96 255.698 253.08 254.71C253.08 254.331 253.08 253.942 253.15 253.563L255.848 254.161C256.971 254.549 257.98 255.207 258.787 256.077C259.594 256.947 260.174 258.002 260.475 259.15C259.516 259.617 258.678 260.3 258.027 261.145C256.192 263.424 253.775 265.168 251.032 266.193C248.555 267.133 245.899 267.512 243.258 267.3C240.946 267.201 238.689 266.57 236.663 265.454C235.534 264.806 234.454 264.177 233.355 263.569Z" fill="#F8F8FB" stroke="#CACFDE" stroke-linecap="round" stroke-linejoin="round"/>
<path d="M233.355 263.569C234.454 264.178 235.534 264.806 236.643 265.385C238.669 266.5 240.926 267.131 243.238 267.23C245.879 267.442 248.535 267.064 251.012 266.123C253.755 265.098 256.172 263.355 258.007 261.075C258.658 260.23 259.496 259.548 260.455 259.08C261.108 260.906 261.062 262.91 260.324 264.704C259.586 266.498 258.208 267.956 256.458 268.796C255.928 269.056 255.359 269.275 254.809 269.515H227.35C229.898 268.368 231.956 266.731 232.846 263.938C232.876 263.808 233.185 263.699 233.355 263.569Z" fill="#F8F8FB" stroke="#CACFDE" stroke-linecap="round" stroke-linejoin="round"/>
<path d="M229.068 253.892C228.069 254.96 227.01 256.007 226.011 257.095C223.497 259.682 220.199 261.372 216.628 261.903C212.827 262.615 208.897 261.968 205.526 260.077C203.681 259.107 202.02 257.82 200.62 256.277C200.136 255.656 199.717 254.988 199.371 254.281L199.821 254.122C201 254.9 202.189 255.688 203.378 256.456C205.744 257.945 208.401 258.911 211.172 259.289C214.449 259.694 217.776 259.311 220.875 258.172C222.751 257.66 224.469 256.686 225.871 255.339C226.69 254.481 227.569 253.344 229.068 253.583C229.048 253.673 229.058 253.782 229.068 253.892Z" fill="#F8F8FB" stroke="#CACFDE" stroke-linecap="round" stroke-linejoin="round"/>
<path d="M255.858 254.181L253.16 253.583C253.23 252.446 252.96 251.129 253.45 250.201C254.739 247.717 254.829 247.208 253.06 245.283C253.35 243.537 252.421 242.489 251.062 241.711C250.262 241.372 249.372 241.312 248.534 241.542C248.177 241.536 247.823 241.601 247.492 241.733C247.161 241.865 246.859 242.06 246.604 242.309C246.348 242.557 246.145 242.853 246.004 243.181C245.864 243.508 245.79 243.859 245.786 244.215C245.033 244.512 244.4 245.048 243.983 245.741C243.565 246.433 243.388 247.243 243.478 248.046C243.478 249.543 243.478 251.039 243.478 252.525C243.478 253.034 243.538 253.523 242.778 253.523C242.778 250.75 242.848 247.966 242.778 245.203C242.638 240.275 247.105 238.13 251.052 239.008C251.972 239.329 252.862 239.733 253.71 240.215C254.064 240.343 254.428 240.44 254.799 240.504C255.498 242.074 255.856 243.774 255.848 245.492C255.728 248.415 255.798 251.278 255.858 254.181Z" fill="#F8F8FB" stroke="#CACFDE" stroke-linecap="round" stroke-linejoin="round"/>
<path d="M202.648 230.777C202.668 230.993 202.668 231.21 202.648 231.426C202.519 232.122 202.578 232.84 202.818 233.507C203.059 234.173 203.473 234.763 204.017 235.217C203.018 235.327 203.358 236.095 203.358 236.623C203.358 242.27 203.358 247.916 203.358 253.583H200.82C200.82 247.348 200.74 241.113 200.82 234.878C200.769 234.097 200.909 233.317 201.228 232.603C201.546 231.888 202.034 231.262 202.648 230.777Z" fill="#F8F8FB" stroke="#CACFDE" stroke-linecap="round" stroke-linejoin="round"/>
<path d="M209.673 220.821V223.186H207.395L207.675 222.288L209.673 220.821Z" fill="#F8F8FB" stroke="#CACFDE" stroke-linecap="round" stroke-linejoin="round"/>
<path d="M237.282 229.83C237.474 230.252 237.609 230.698 237.682 231.157C237.682 235.087 237.682 239.018 237.682 242.948C237.682 244.415 237.542 244.534 236.073 244.554C234.912 244.629 233.747 244.629 232.586 244.554C231.307 244.405 230.068 243.916 228.789 243.826C227.393 243.621 225.969 243.712 224.612 244.096C223.579 244.427 222.499 244.589 221.414 244.574C220.865 244.574 220.305 244.574 219.755 244.574C217.637 244.574 217.657 244.934 217.697 242.579C218.496 242.12 219.336 241.711 220.095 241.202C225.524 237.531 230.94 233.853 236.343 230.169C236.64 230.016 236.956 229.902 237.282 229.83Z" fill="#F8F8FB" stroke="#CACFDE" stroke-linecap="round" stroke-linejoin="round"/>
<path d="M217.687 241.892V241.562C217.707 241.671 217.707 241.783 217.687 241.892Z" fill="#F8F8FB" stroke="#CACFDE" stroke-linecap="round" stroke-linejoin="round"/>
<path d="M217.647 234.888C217.601 234.808 217.561 234.725 217.527 234.638C217.527 234.638 217.607 234.578 217.647 234.548V234.888Z" fill="#F8F8FB" stroke="#CACFDE" stroke-linecap="round" stroke-linejoin="round"/>
<path d="M242.698 253.573C243.457 253.573 243.398 253.034 243.398 252.575C243.398 251.089 243.398 249.582 243.398 248.096C243.308 247.293 243.485 246.483 243.902 245.791C244.32 245.098 244.953 244.562 245.706 244.265C248.134 244.315 250.702 243.756 252.86 245.263C252.913 245.273 252.968 245.273 253.02 245.263C254.789 247.258 254.699 247.697 253.41 250.181C252.92 251.109 253.19 252.426 253.12 253.563C253.12 253.942 253.12 254.331 253.05 254.71C252.93 255.708 252.391 256.077 251.481 255.847C250.033 255.478 249.483 255.758 248.764 256.995C248.24 257.89 247.616 258.723 246.905 259.479C246.271 260.128 245.515 260.646 244.679 261.002C243.844 261.358 242.947 261.545 242.039 261.554H235.044H233.725L233.395 261.504C233.312 259.986 232.881 258.507 232.134 257.182C231.387 255.857 230.345 254.721 229.088 253.862C229.088 253.752 229.088 253.643 229.088 253.533C229.988 252.146 231.087 251.139 232.916 251.538C233.756 251.675 234.549 252.017 235.224 252.535C235.546 252.874 235.938 253.138 236.373 253.311C236.808 253.483 237.275 253.559 237.742 253.533C239.371 253.533 241.039 253.573 242.698 253.573Z" fill="#F8F8FB" stroke="#CACFDE" stroke-linecap="round" stroke-linejoin="round"/>
<path d="M203.368 253.563C203.368 247.916 203.368 242.27 203.368 236.603C203.368 236.075 203.028 235.307 204.027 235.197C206.323 235.81 208.743 235.779 211.022 235.107C211.022 241.252 211.022 247.398 211.022 253.543H204.027L203.368 253.563Z" fill="#F8F8FB" stroke="#CACFDE" stroke-linecap="round" stroke-linejoin="round"/>
<path d="M220.695 250.56C219.723 249.602 218.834 248.564 218.037 247.458C217.198 246.091 217.717 245.333 219.146 245.542C219.92 245.617 220.7 245.617 221.474 245.542C222.147 245.446 222.831 245.485 223.488 245.656C224.146 245.827 224.762 246.128 225.301 246.54C225.181 246.679 224.992 246.819 224.932 246.989C224.874 247.231 224.847 247.478 224.852 247.727C225.081 247.667 225.401 247.727 225.541 247.537C226.141 246.909 226.78 246.32 227.699 246.6C228.333 246.886 228.944 247.219 229.528 247.597C229.819 247.71 230.116 247.807 230.418 247.887C230.437 247.608 230.396 247.329 230.298 247.069C229.998 246.58 230.118 246.38 230.637 246.26C231.4 246.007 232.177 245.8 232.965 245.642C233.85 245.582 234.739 245.582 235.624 245.642C237.422 245.642 237.942 246.46 237.082 248.106C236.69 248.696 236.204 249.218 235.644 249.652C235.254 250.011 234.804 250.311 234.374 250.65L220.695 250.56Z" fill="#F8F8FB" stroke="#CACFDE" stroke-linecap="round" stroke-linejoin="round"/>
<path d="M211.032 253.563C211.032 247.418 211.032 241.272 211.032 235.127L213.031 231.905C213.33 232.992 213.534 234.104 213.64 235.227C213.7 240.644 213.64 246.061 213.64 251.478C213.64 253.742 213.9 253.553 211.642 253.563H211.032Z" fill="#F8F8FB" stroke="#CACFDE" stroke-linecap="round" stroke-linejoin="round"/>
<path d="M204.017 253.583H209.373C209.985 253.892 210.643 254.101 211.322 254.201C213.96 254.201 216.588 254.421 219.206 253.663C220.652 253.422 222.131 253.459 223.563 253.772C222.502 254.892 221.17 255.72 219.696 256.177C216.895 257.069 213.923 257.287 211.022 256.815C208.771 256.645 206.607 255.873 204.757 254.58C204.464 254.285 204.215 253.949 204.017 253.583Z" fill="#F8F8FB" stroke="#CACFDE" stroke-linecap="round" stroke-linejoin="round"/>
<path d="M230.238 255.339C229.744 257.648 228.596 259.767 226.93 261.444C225.432 263.141 223.613 264.526 221.578 265.519C219.542 266.512 217.33 267.093 215.069 267.23C205.526 268.048 198.901 260.855 197.702 256.057C201.939 261.996 207.495 264.816 214.37 264.517C221.114 264.247 226.76 261.634 230.238 255.339Z" fill="#F8F8FB" stroke="#CACFDE" stroke-linecap="round" stroke-linejoin="round"/>
<path d="M233.375 261.534L233.705 261.584L233.365 261.904L233.375 261.534Z" fill="#F8F8FB" stroke="#CACFDE" stroke-linecap="round" stroke-linejoin="round"/>
<path d="M227.56 193.247C226.84 193.247 226.121 193.247 225.411 193.247C224.412 193.178 223.992 192.509 224.472 191.701C224.772 191.172 225.208 190.733 225.735 190.43C226.262 190.126 226.861 189.969 227.47 189.975C228.135 189.935 228.798 190.086 229.38 190.409C229.963 190.733 230.44 191.215 230.757 191.801C230.863 191.933 230.928 192.094 230.943 192.262C230.959 192.431 230.925 192.6 230.845 192.75C230.766 192.9 230.644 193.022 230.495 193.104C230.346 193.185 230.177 193.221 230.008 193.207C229.188 193.287 228.359 193.207 227.54 193.207L227.56 193.247Z" fill="#F8F8FB" stroke="#CACFDE" stroke-linecap="round" stroke-linejoin="round"/>
<path d="M235.024 261.604H242.019C242.218 261.823 242.408 262.222 242.618 262.222C246.056 262.332 249.473 262.172 252.531 260.327C254.02 259.429 255.528 259.519 257.527 259.728C256.634 260.636 255.626 261.424 254.529 262.072C252.352 262.926 250.126 263.652 247.864 264.247C245.016 265.035 242.159 264.487 239.371 263.888C237.993 263.502 236.655 262.987 235.374 262.352C235.184 262.252 235.134 261.853 235.024 261.604Z" fill="#F8F8FB" stroke="#CACFDE" stroke-linecap="round" stroke-linejoin="round"/>
<path d="M253.02 245.293C252.968 245.303 252.913 245.303 252.86 245.293C250.652 243.756 248.134 244.295 245.706 244.295C245.71 243.939 245.784 243.588 245.924 243.26C246.065 242.933 246.268 242.637 246.524 242.389C246.779 242.14 247.081 241.945 247.412 241.813C247.743 241.681 248.097 241.616 248.454 241.622C249.292 241.392 250.182 241.452 250.982 241.791C252.381 242.489 253.31 243.537 253.02 245.293Z" fill="#F8F8FB" stroke="#CACFDE" stroke-linecap="round" stroke-linejoin="round"/>
<path d="M229.278 209.937C228.979 208.66 228.669 207.413 228.419 206.166C228.359 205.75 228.359 205.326 228.419 204.909C228.739 200.919 231.796 200.35 234.484 200.919C234.753 200.957 235.011 201.053 235.239 201.2C235.467 201.348 235.66 201.544 235.803 201.774C235.947 202.005 236.039 202.263 236.072 202.533C236.104 202.802 236.078 203.075 235.993 203.333C235.913 203.07 235.813 202.813 235.693 202.565C235.552 202.248 235.348 201.963 235.094 201.727C233.295 200.36 229.848 201.488 229.098 203.622C228.522 205.492 228.705 207.513 229.608 209.249C229.718 209.508 229.848 209.758 230.098 210.247C228.861 210.403 227.617 210.496 226.37 210.526C225.591 210.526 225.451 209.868 225.681 209.149C226.038 208.153 226.339 207.137 226.58 206.107C226.698 205.447 226.698 204.771 226.58 204.111C226.34 202.395 225.581 201.478 224.242 201.318C222.244 201.059 220.835 201.767 220.135 203.313C220.135 203.383 219.995 203.423 219.725 203.443C219.756 203.099 219.84 202.763 219.975 202.445C220.975 200.889 222.453 200.61 224.112 200.769C224.765 200.804 225.39 201.05 225.889 201.472C226.389 201.893 226.737 202.466 226.88 203.104C227.347 204.999 227.142 206.998 226.301 208.76C225.821 210.007 225.921 210.167 227.23 210.067C227.879 210.067 228.519 209.937 229.158 209.858C229.238 209.987 229.278 209.927 229.278 209.937Z" fill="#CACFDE"/>
<path d="M230.068 200.4C230.648 199.866 231.344 199.473 232.101 199.252C232.859 199.03 233.657 198.986 234.434 199.123C234.899 199.156 235.342 199.334 235.7 199.631C236.059 199.928 236.315 200.329 236.433 200.779C234.394 198.555 232.246 199.622 230.068 200.4Z" fill="#CACFDE"/>
<path d="M219.796 200.799C220.505 199.512 222.613 198.904 224.532 199.413C224.926 199.459 225.295 199.631 225.584 199.902C225.874 200.173 226.069 200.529 226.141 200.919C223.882 198.984 221.884 199.572 219.796 200.799Z" fill="#CACFDE"/>
<path d="M230.367 205.199L235.364 204.65C234.684 205.538 231.577 205.907 230.367 205.199Z" fill="#CACFDE"/>
<path d="M225.881 205.099C224.352 205.827 220.945 205.498 220.435 204.77L225.881 205.099Z" fill="#CACFDE"/>
<path d="M227.879 200.071C228.259 200.63 228.639 200.929 228.629 201.228C228.619 201.528 228.149 201.976 227.949 201.947C227.77 201.9 227.606 201.81 227.47 201.684C227.334 201.559 227.231 201.403 227.17 201.228C227.11 200.969 227.5 200.63 227.879 200.071Z" fill="#CACFDE"/>
<path d="M225.651 213.369C227.31 213.768 228.739 214.167 230.088 213.05C229.878 214.526 226.93 214.586 225.651 213.369Z" fill="#CACFDE"/>
<path d="M229.818 212.372L230.268 212.531C229.268 213.2 227.989 213.279 225.771 212.701L229.878 212.372H229.818Z" fill="#CACFDE"/>
<path d="M229.878 212.372C229.048 211.833 227.879 211.813 225.731 212.372C226.071 212.032 226.211 211.773 226.37 211.753C227.365 211.628 228.366 211.554 229.368 211.534C229.518 211.534 229.658 212.062 229.808 212.352L229.878 212.372Z" fill="#CACFDE"/>
<path d="M293.63 283.421C293.8 281.845 292.9 279.75 294.029 278.832C295.028 278.054 297.027 278.553 298.526 278.493H330.362H363.247C363.826 278.493 364.406 278.553 364.996 278.553C368.223 278.553 368.992 279.551 368.233 282.793C368.113 283.292 367.883 283.481 367.424 283.481H366.374H295.198C294.669 283.501 294.149 283.451 293.63 283.421Z" fill="#F8F8FB" stroke="#CACFDE" stroke-linecap="round" stroke-linejoin="round"/>
<path d="M349.557 69.0746C349.557 68.2965 348.868 68.4362 348.378 68.4162C346.689 68.4162 345.001 68.3564 343.302 68.3364C341.513 66.1117 340.544 63.0989 337.466 62.0814C336.947 61.9118 337.017 61.4529 337.007 61.0838C337.007 60.2657 337.007 59.4577 337.007 58.6397C337.007 57.9713 336.877 57.4425 336.068 57.5223C334.928 57.6221 334.908 56.9138 334.918 56.0758C334.918 53.083 335.028 50.0103 334.918 46.9875C334.838 45.3215 335.288 44.6032 337.007 44.8826C337.696 44.9823 338.366 44.8826 338.216 43.885C338.066 42.8873 338.815 41.6603 337.446 41.4109C336.357 41.2214 336.297 40.7325 336.317 39.9145C336.317 38.9169 336.317 37.9193 336.317 36.9216C336.317 35.924 336.317 35.1658 334.998 35.2656C333.999 35.3454 334.149 34.5274 334.139 33.9088C334.139 31.345 334.139 28.7812 334.139 26.2173C334.139 25.4192 334.029 24.7508 333.03 24.9303C331.031 25.2795 330.941 24.1522 330.951 22.6059C331.011 15.7324 330.951 8.84883 330.951 1.97529C330.951 1.37673 331.431 0.249455 329.952 0.508834C328.483 0.299335 329.053 1.50645 329.053 2.01524C329 9.07832 329 16.1381 329.053 23.1945C329.053 24.4315 328.793 25.1099 327.424 24.8905C326.055 24.671 325.815 25.2596 325.845 26.4667C325.925 28.9807 325.845 31.4547 325.845 33.9987C325.845 34.4875 325.995 35.2756 325.256 35.2257C323.257 35.086 323.707 36.4328 323.687 37.5302C323.687 38.458 323.687 39.3957 323.687 40.3235C323.687 40.8223 323.627 41.2313 322.967 41.3211C320.879 41.5007 322.048 43.0969 321.968 44.0246C321.798 45.3215 322.967 44.9125 323.597 44.8627C324.906 44.7629 325.166 45.3514 325.136 46.5087C325.136 49.5015 325.136 52.5742 325.136 55.6069C325.136 56.6045 325.326 57.672 323.727 57.5024C323.087 57.4425 323.047 58.0012 323.047 58.5C323.047 59.3779 323.047 60.2558 323.047 61.1337C323.047 61.4629 323.137 62.0016 322.718 62.0116C320.549 62.0914 319.9 64.0068 318.98 65.3137C317.442 67.5483 315.753 69.0547 312.845 68.4761C312.365 68.3863 311.686 68.3663 311.666 69.1445C311.646 69.9226 311.266 70.7606 312.475 70.9103H330.462L331.461 70.7706L348.868 70.8604C350.067 70.7108 349.547 69.7131 349.557 69.0746Z" fill="#F8F8FB" stroke="#CACFDE" stroke-linecap="round" stroke-linejoin="round"/>
<path d="M338.965 230.957C338.453 230.968 337.944 230.876 337.468 230.687C336.992 230.498 336.558 230.216 336.193 229.857C335.828 229.498 335.539 229.07 335.342 228.597C335.145 228.125 335.045 227.618 335.048 227.106C335.106 226.078 335.549 225.109 336.289 224.391C337.03 223.674 338.014 223.262 339.045 223.236C340.042 223.31 340.978 223.742 341.682 224.452C342.385 225.161 342.808 226.1 342.872 227.096C342.876 227.608 342.778 228.115 342.582 228.588C342.387 229.061 342.099 229.49 341.735 229.85C341.37 230.209 340.938 230.493 340.462 230.683C339.987 230.873 339.478 230.966 338.965 230.957Z" fill="#F8F8FB" stroke="#CACFDE" stroke-linecap="round" stroke-linejoin="round"/>
<path d="M344.731 254.321C343.162 254.321 341.593 254.321 340.015 254.321C339.555 254.321 339.015 254.321 339.015 253.643C339.015 252.964 339.585 252.974 340.015 252.974C343.152 252.974 346.29 252.974 349.427 252.974C349.897 252.974 350.427 252.974 350.427 253.653C350.427 254.331 349.847 254.301 349.427 254.311L344.731 254.321Z" fill="#F8F8FB" stroke="#CACFDE" stroke-linecap="round" stroke-linejoin="round"/>
<path d="M341.463 239.247C340.005 239.247 338.546 239.247 337.087 239.247C336.587 239.247 335.908 239.347 335.848 238.639C335.788 237.93 336.467 237.91 336.977 237.91H346.06C346.52 237.91 347.059 237.91 347.139 238.519C347.219 239.128 346.52 239.237 346.01 239.247C344.491 239.307 342.982 239.247 341.463 239.247Z" fill="#F8F8FB" stroke="#CACFDE" stroke-linecap="round" stroke-linejoin="round"/>
<path d="M342.792 245.233H338.246C337.796 245.233 337.247 245.233 337.197 244.604C337.147 243.976 337.736 243.906 338.196 243.896H347.469C347.939 243.896 348.468 243.976 348.468 244.574C348.468 245.363 347.769 245.213 347.289 245.223C345.79 245.293 344.261 245.233 342.792 245.233Z" fill="#F8F8FB" stroke="#CACFDE" stroke-linecap="round" stroke-linejoin="round"/>
<path d="M345.95 258.96C347.519 258.96 349.078 258.96 350.646 258.96C351.096 258.96 351.646 258.96 351.646 259.588C351.646 260.217 351.126 260.277 350.646 260.277H341.254C340.784 260.277 340.254 260.197 340.254 259.558C340.254 258.92 340.874 258.96 341.334 258.95L345.95 258.96Z" fill="#F8F8FB" stroke="#CACFDE" stroke-linecap="round" stroke-linejoin="round"/>
<path d="M342.273 241.003H346.639C347.079 241.003 347.709 240.893 347.769 241.512C347.828 242.13 347.199 242.13 346.769 242.14C343.682 242.14 340.604 242.14 337.516 242.14C337.127 242.14 336.577 242.21 336.517 241.661C336.457 241.113 337.087 241.033 337.516 241.023C339.085 241.023 340.664 241.023 342.233 241.023L342.273 241.003Z" fill="#F8F8FB" stroke="#CACFDE" stroke-linecap="round" stroke-linejoin="round"/>
<path d="M345.25 257.194C343.682 257.194 342.103 257.194 340.524 257.194C340.204 257.194 339.755 257.194 339.705 256.765C339.655 256.336 340.084 256.097 340.504 256.097C343.722 256.097 346.932 256.097 350.137 256.097C350.546 256.097 351.026 256.157 350.966 256.725C350.906 257.294 350.506 257.204 350.157 257.204H345.25V257.194Z" fill="#F8F8FB" stroke="#CACFDE" stroke-linecap="round" stroke-linejoin="round"/>
<path d="M346.709 263.19H341.993C341.593 263.19 341.064 263.19 341.054 262.671C341.044 262.152 341.543 262.073 341.953 262.073C345.097 262.073 348.245 262.073 351.396 262.073C351.806 262.073 352.315 262.073 352.335 262.631C352.355 263.19 351.836 263.2 351.426 263.2L346.709 263.19Z" fill="#F8F8FB" stroke="#CACFDE" stroke-linecap="round" stroke-linejoin="round"/>
<path d="M343.492 246.989C345.001 246.989 346.49 246.989 348.018 246.989C348.458 246.989 349.078 246.929 349.018 247.587C348.958 248.246 348.458 248.106 348.018 248.106H338.615C338.216 248.106 337.706 248.106 337.756 247.507C337.806 246.909 338.306 246.989 338.755 246.989H343.492Z" fill="#F8F8FB" stroke="#CACFDE" stroke-linecap="round" stroke-linejoin="round"/>
<path d="M340.844 235.027C342.413 235.027 343.991 235.027 345.56 235.027C345.97 235.027 346.46 235.027 346.41 235.646C346.41 236.065 345.95 236.135 345.6 236.135H335.987C335.618 236.135 335.218 236.015 335.218 235.606C335.218 235.197 335.718 235.027 336.127 235.027H340.844Z" fill="#F8F8FB" stroke="#CACFDE" stroke-linecap="round" stroke-linejoin="round"/>
<path d="M343.852 251.219H339.485C339.075 251.219 338.556 251.219 338.486 250.7C338.486 250.001 339.065 250.081 339.485 250.081H348.578C348.968 250.081 349.507 250.081 349.577 250.58C349.577 251.268 349.018 251.209 348.578 251.219C347.009 251.219 345.44 251.219 343.862 251.219H343.852Z" fill="#F8F8FB" stroke="#CACFDE" stroke-linecap="round" stroke-linejoin="round"/>
<path d="M321.978 223.475C322.488 223.462 322.994 223.554 323.467 223.744C323.939 223.934 324.368 224.219 324.727 224.58C325.085 224.942 325.366 225.373 325.551 225.847C325.737 226.321 325.823 226.827 325.805 227.336C325.777 228.356 325.359 229.327 324.636 230.049C323.913 230.771 322.94 231.189 321.918 231.216C320.893 231.195 319.917 230.774 319.2 230.043C318.483 229.312 318.081 228.329 318.081 227.306C318.067 226.794 318.158 226.284 318.35 225.809C318.542 225.334 318.829 224.903 319.195 224.544C319.56 224.185 319.996 223.904 320.475 223.72C320.954 223.536 321.466 223.453 321.978 223.475Z" fill="#F8F8FB" stroke="#CACFDE" stroke-linecap="round" stroke-linejoin="round"/>
<path d="M325.106 235.756H313.914C313.445 234.838 313.914 234.628 314.734 234.628H323.957C324.696 234.668 325.226 234.858 325.106 235.756Z" fill="#F8F8FB" stroke="#CACFDE" stroke-linecap="round" stroke-linejoin="round"/>
<path d="M330.382 209.538H311.636C312.805 214.596 313.984 219.654 315.133 224.712C315.253 225.201 315.743 226.039 314.744 226.059C313.525 226.059 313.405 226.857 313.155 227.715C310.29 237.558 307.416 247.404 304.531 257.254L298.656 277.865C298.596 278.084 298.566 278.314 298.526 278.543H330.362H363.247C357.964 261.59 352.672 244.631 347.369 227.665C347.209 227.146 347.269 226.328 346.619 226.188C345.62 225.969 345.86 225.48 346.02 224.802C347.249 219.644 348.438 214.487 349.637 209.319C344.375 209.319 339.105 209.292 333.829 209.239C333.14 209.239 332.44 209.189 331.751 209.159C331.563 209.318 331.345 209.436 331.109 209.504C330.873 209.573 330.625 209.592 330.382 209.558V209.538ZM352.365 262.631C352.365 263.18 351.866 263.2 351.456 263.2C349.887 263.2 348.318 263.2 346.739 263.2C345.161 263.2 343.592 263.2 342.023 263.2C341.623 263.2 341.094 263.2 341.084 262.681C341.074 262.162 341.573 262.083 341.983 262.083C345.127 262.083 348.275 262.083 351.426 262.083C351.786 262.053 352.315 262.083 352.335 262.611L352.365 262.631ZM351.716 259.638C351.716 260.307 351.196 260.327 350.716 260.327H341.324C340.854 260.327 340.324 260.247 340.324 259.608C340.324 258.97 340.944 259.01 341.403 259H345.92C347.489 259 349.048 259 350.616 259C351.096 258.97 351.656 258.95 351.686 259.599L351.716 259.638ZM350.996 256.745C350.996 257.184 350.537 257.224 350.187 257.224H345.281C343.712 257.224 342.133 257.224 340.554 257.224C340.234 257.224 339.785 257.224 339.735 256.795C339.685 256.366 340.114 256.127 340.534 256.127C343.752 256.127 346.963 256.127 350.167 256.127C350.547 256.077 351.026 256.137 350.966 256.705L350.996 256.745ZM350.507 253.693C350.507 254.331 349.927 254.341 349.507 254.351H344.801C343.232 254.351 341.653 254.351 340.084 254.351C339.625 254.351 339.085 254.351 339.085 253.673C339.085 252.994 339.655 253.004 340.084 253.004C343.222 253.004 346.36 253.004 349.497 253.004C349.927 252.974 350.487 253.024 350.477 253.653L350.507 253.693ZM349.607 250.62C349.607 251.308 349.048 251.248 348.608 251.258C347.039 251.258 345.47 251.258 343.892 251.258H339.525C339.115 251.258 338.596 251.258 338.526 250.74C338.526 250.041 339.105 250.121 339.525 250.121H348.618C349.008 250.081 349.547 250.041 349.577 250.58L349.607 250.62ZM349.088 247.627C349.088 248.146 348.528 248.146 348.088 248.146H338.686C338.286 248.146 337.776 248.146 337.826 247.547C337.876 246.949 338.376 247.029 338.825 247.029H343.532C345.041 247.029 346.53 247.029 348.058 247.029C348.458 246.999 349.078 246.929 349.058 247.587L349.088 247.627ZM348.508 244.634C348.508 245.422 347.809 245.273 347.329 245.283C345.81 245.283 344.331 245.283 342.772 245.283H338.226C337.776 245.283 337.227 245.283 337.177 244.654C337.127 244.026 337.716 243.956 338.176 243.946H347.449C347.899 243.896 348.478 243.976 348.478 244.575L348.508 244.634ZM347.799 241.572C347.869 242.25 347.229 242.19 346.799 242.2C343.712 242.2 340.634 242.2 337.546 242.2C337.157 242.2 336.607 242.27 336.547 241.721C336.487 241.173 337.117 241.093 337.546 241.083C339.115 241.083 340.694 241.083 342.263 241.083H346.629C347.079 241.013 347.709 240.893 347.789 241.512L347.799 241.572ZM347.169 238.579C347.169 239.347 346.55 239.297 346.04 239.307C344.521 239.307 343.042 239.307 341.493 239.307C339.945 239.307 338.576 239.307 337.117 239.307C336.617 239.307 335.938 239.407 335.878 238.699C335.818 237.99 336.497 237.97 337.007 237.97H346.09C346.52 237.9 347.109 237.881 347.139 238.509L347.169 238.579ZM346.44 235.726C346.44 236.145 345.98 236.215 345.63 236.215H336.018C335.648 236.215 335.248 236.095 335.248 235.686C335.248 235.277 335.748 235.107 336.157 235.107H340.874C342.443 235.107 344.022 235.107 345.59 235.107C345.97 235.037 346.46 235.087 346.41 235.656L346.44 235.726ZM339.075 223.305C340.072 223.38 341.008 223.812 341.712 224.522C342.415 225.231 342.838 226.17 342.902 227.166C342.906 227.678 342.808 228.185 342.612 228.658C342.417 229.131 342.129 229.56 341.765 229.919C341.4 230.279 340.968 230.563 340.492 230.753C340.017 230.943 339.508 231.036 338.995 231.027C338.483 231.038 337.974 230.946 337.498 230.757C337.022 230.568 336.588 230.285 336.223 229.927C335.858 229.568 335.569 229.139 335.372 228.667C335.175 228.195 335.075 227.688 335.078 227.176C335.118 226.14 335.549 225.158 336.285 224.427C337.022 223.696 338.008 223.27 339.045 223.236L339.075 223.305ZM321.968 231.286C320.943 231.265 319.967 230.844 319.25 230.113C318.533 229.382 318.131 228.399 318.131 227.376C318.12 226.867 318.213 226.361 318.405 225.89C318.596 225.419 318.882 224.991 319.245 224.634C319.609 224.278 320.041 223.999 320.516 223.815C320.991 223.631 321.499 223.546 322.008 223.565C322.507 223.557 323.003 223.649 323.466 223.835C323.929 224.022 324.35 224.299 324.704 224.65C325.058 225.002 325.338 225.42 325.527 225.882C325.716 226.343 325.811 226.837 325.805 227.336C325.773 228.349 325.355 229.313 324.637 230.03C323.918 230.747 322.954 231.164 321.938 231.196L321.968 231.286Z" fill="#F8F8FB" stroke="#CACFDE" stroke-linecap="round" stroke-linejoin="round"/>
<path d="M331.061 189.536L330.402 189.626H311.186C312.519 195.339 313.871 201.059 315.243 206.785C316.123 207.294 317.072 207.014 317.991 207.014C322.128 207.014 326.265 207.014 330.412 206.954L331.751 207.084L346.07 206.944C347.402 201.172 348.708 195.395 349.987 189.616L331.061 189.536Z" fill="#F8F8FB" stroke="#CACFDE" stroke-linecap="round" stroke-linejoin="round"/>
<path d="M330.382 90.4435H313.285C314.39 96.1232 315.506 101.796 316.632 107.463H330.392L331.061 107.532L344.621 107.463C345.713 101.763 346.806 96.0699 347.898 90.3836L330.672 90.2838L330.382 90.4035" fill="#F8F8FB"/>
<path d="M330.382 90.4435H313.285C314.39 96.1232 315.506 101.796 316.632 107.463H330.392L331.061 107.532L344.621 107.463C345.713 101.763 346.806 96.0699 347.898 90.3836L330.672 90.2838L330.382 90.4035" stroke="#CACFDE" stroke-linecap="round" stroke-linejoin="round"/>
<path d="M331.031 109.967L330.382 110.056H313.035C314.247 116.102 315.453 122.151 316.652 128.203L320.2 128.143L330.372 128.213L331.031 128.273L344.601 128.173C345.794 122.114 346.986 116.062 348.178 110.017L331.031 109.967Z" fill="#F8F8FB" stroke="#CACFDE" stroke-linecap="round" stroke-linejoin="round"/>
<path d="M330.302 150.25H311.816L311.266 150.31L315.103 167.04L318.471 166.96" fill="#F8F8FB"/>
<path d="M330.302 150.25H311.816L311.266 150.31L315.103 167.04L318.471 166.96" stroke="#CACFDE" stroke-linecap="round" stroke-linejoin="round"/>
<path d="M330.402 167.09H331.071L346.14 166.96C347.406 161.374 348.678 155.794 349.957 150.22C347.827 149.95 345.675 149.883 343.532 150.021C339.405 150.021 335.278 150.021 331.161 150.021L330.302 150.22" fill="#F8F8FB"/>
<path d="M330.402 167.09H331.071L346.14 166.96C347.406 161.374 348.678 155.794 349.957 150.22C347.827 149.95 345.675 149.883 343.532 150.021C339.405 150.021 335.278 150.021 331.161 150.021L330.302 150.22" stroke="#CACFDE" stroke-linecap="round" stroke-linejoin="round"/>
<path d="M318.431 166.95C322.428 167.27 326.425 167.01 330.422 167.09L318.431 166.95Z" fill="#F8F8FB"/>
<path d="M318.431 166.95C322.428 167.27 326.425 167.01 330.422 167.09" stroke="#CACFDE" stroke-linecap="round" stroke-linejoin="round"/>
<path d="M316.362 130.707H311.706L312.515 134.169C313.205 137.82 313.994 141.441 314.983 145.023L315.493 147.766H330.402L331.071 147.856L345.74 147.766C346.999 142.087 348.262 136.41 349.527 130.737L331.031 130.627L330.372 130.707H316.382" fill="#F8F8FB"/>
<path d="M316.362 130.707H311.706L312.515 134.169C313.205 137.82 313.994 141.441 314.983 145.023L315.493 147.766H330.402L331.071 147.856L345.74 147.766C346.999 142.087 348.262 136.41 349.527 130.737L331.031 130.627L330.372 130.707H316.382" stroke="#CACFDE" stroke-linecap="round" stroke-linejoin="round"/>
<path d="M331.401 70.7606L330.402 70.9003H312.415C312.895 73.0751 313.365 75.2599 313.844 77.4446C314.335 80.6446 315.002 83.8152 315.843 86.9419L315.963 87.9395H330.342L330.652 88.0592C334.838 88.0592 339.035 87.9994 343.232 87.9495C343.912 87.9495 344.651 88.159 345.231 87.5704C346.423 81.9971 347.615 76.4204 348.808 70.8404L331.401 70.7606Z" fill="#F8F8FB" stroke="#CACFDE" stroke-linecap="round" stroke-linejoin="round"/>
<path d="M344.591 169.315C340.104 169.315 335.598 169.315 331.141 169.315L330.282 169.504L328.953 169.604H314.294C313.847 170.025 313.351 170.39 312.815 170.691C313.351 170.39 313.847 170.025 314.294 169.604L311.236 169.554C311.416 170.262 311.606 170.981 311.796 171.699C312.272 174.421 312.886 177.118 313.634 179.78C314.194 182.254 314.747 184.721 315.293 187.182H330.282L330.971 187.282L345.88 187.112C347.212 181.246 348.568 175.383 349.947 169.524C348.175 169.256 346.379 169.186 344.591 169.315Z" fill="#F8F8FB" stroke="#CACFDE" stroke-linecap="round" stroke-linejoin="round"/>
<path d="M311.236 169.474L314.294 169.524H328.953L330.282 169.424L331.141 169.235L331.071 167.05H330.402C326.405 166.97 322.408 167.23 318.411 166.91L315.043 167C313.824 167 312.595 167 311.376 167C310.647 167 310.017 167 309.987 167.998C309.957 168.995 310.247 169.534 311.236 169.474Z" fill="#F8F8FB" stroke="#CACFDE" stroke-linecap="round" stroke-linejoin="round"/>
<path d="M311.226 150.3L311.776 150.24H330.302L331.161 150.041C335.278 150.041 339.405 150.041 343.532 150.041C345.675 149.903 347.827 149.969 349.957 150.24C351.146 150.24 351.166 149.502 351.116 148.624C351.066 147.746 350.337 147.806 349.737 147.786C348.398 147.786 347.069 147.786 345.74 147.786L331.071 147.876L330.402 147.786H315.493C314.164 147.786 312.835 147.786 311.496 147.786C310.857 147.786 310.067 147.557 310.007 148.694C309.967 149.672 310.117 150.3 311.226 150.3Z" fill="#F8F8FB" stroke="#CACFDE" stroke-linecap="round" stroke-linejoin="round"/>
<path d="M311.706 130.737H316.362H330.352L331.011 130.657L349.507 130.767C350.646 130.767 350.607 130.049 350.597 129.231C350.587 128.413 349.957 128.233 349.287 128.233H344.581L331.011 128.333L330.352 128.273L320.18 128.203L316.632 128.263L311.926 128.313C311.266 128.313 310.617 128.313 310.627 129.251C310.647 129.979 310.537 130.777 311.706 130.737Z" fill="#F8F8FB" stroke="#CACFDE" stroke-linecap="round" stroke-linejoin="round"/>
<path d="M351.196 188.04C351.196 187.042 350.467 187.192 349.847 187.172L345.85 187.082L330.941 187.252L330.252 187.152H315.263C313.954 187.152 312.635 187.152 311.326 187.232C310.737 187.232 310.017 187.062 309.997 188.09C309.997 188.958 309.997 189.736 311.156 189.636H330.372L331.031 189.546L349.957 189.616C351.176 189.686 351.216 188.908 351.196 188.04Z" fill="#F8F8FB" stroke="#CACFDE" stroke-linecap="round" stroke-linejoin="round"/>
<path d="M313.035 110.067H330.382L331.031 109.977L348.178 110.037C349.357 109.667 348.838 108.72 348.788 108.041C348.738 107.363 347.988 107.582 347.529 107.563C346.529 107.563 345.59 107.563 344.621 107.563L331.061 107.632L330.392 107.563H316.632C315.713 107.563 314.794 107.563 313.874 107.642C313.345 107.642 312.575 107.363 312.465 108.211C312.385 108.82 312.006 109.677 313.035 110.067Z" fill="#F8F8FB" stroke="#CACFDE" stroke-linecap="round" stroke-linejoin="round"/>
<path d="M313.275 90.4734H330.382L330.672 90.3537L347.899 90.4534C348.898 90.0543 348.518 89.1864 348.428 88.538C348.308 87.71 347.529 88.0791 347.009 87.9993C346.49 87.9195 345.72 88.1988 345.231 87.6102C344.661 88.1988 343.921 87.9794 343.232 87.9893C339.035 88.0392 334.838 88.0591 330.652 88.099L330.342 87.9793H315.963C315.453 87.9793 314.963 87.9793 314.434 88.0392C313.904 88.0991 313.115 87.7698 312.905 88.3883C312.695 89.0069 312.425 89.8948 313.275 90.4734Z" fill="#F8F8FB" stroke="#CACFDE" stroke-linecap="round" stroke-linejoin="round"/>
<path d="M344.591 169.315C346.384 169.175 348.187 169.235 349.967 169.494C351.186 169.544 351.156 168.726 351.116 167.888C351.076 167.05 350.347 167.07 349.747 167.05L346.14 166.99L331.071 167.12L331.141 169.305C335.628 169.305 340.104 169.275 344.591 169.315Z" fill="#F8F8FB" stroke="#CACFDE" stroke-linecap="round" stroke-linejoin="round"/>
<path d="M349.527 206.964H346.07L331.751 207.104L330.412 206.974C326.265 206.974 322.128 207.044 317.991 207.034C317.072 207.034 316.123 207.314 315.243 206.805C314.244 207.274 313.075 206.934 311.996 207.044C311.396 207.114 310.537 206.695 310.447 207.872C310.387 208.8 310.507 209.488 311.636 209.518H330.382C330.625 209.552 330.873 209.533 331.109 209.464C331.345 209.396 331.563 209.278 331.751 209.119C332.44 209.119 333.14 209.199 333.829 209.199C339.092 209.239 344.361 209.266 349.637 209.279C350.786 209.359 350.726 208.571 350.716 207.802C350.706 207.034 350.127 206.974 349.527 206.964Z" fill="#F8F8FB" stroke="#CACFDE" stroke-linecap="round" stroke-linejoin="round"/>
<path d="M313.565 237.531L322.738 237.591C323.427 237.506 324.126 237.639 324.736 237.97L324.406 238.718C320.669 238.978 316.932 238.838 313.195 238.798C312.815 238.23 313.045 237.841 313.565 237.531Z" fill="#F8F8FB" stroke="#CACFDE" stroke-linecap="round" stroke-linejoin="round"/>
<path d="M310.057 252.685H320.14C320.589 252.685 321.139 252.615 321.249 253.234C321.359 253.852 320.869 253.922 320.449 253.912C316.872 253.802 313.275 254.251 309.708 253.663C309.817 253.333 309.937 253.004 310.057 252.685Z" fill="#F8F8FB" stroke="#CACFDE" stroke-linecap="round" stroke-linejoin="round"/>
<path d="M322.957 244.784H311.816C311.755 244.577 311.749 244.358 311.798 244.149C311.847 243.939 311.949 243.745 312.096 243.587L321.638 243.687C322.268 243.687 322.937 243.537 323.367 244.205L322.957 244.784Z" fill="#F8F8FB" stroke="#CACFDE" stroke-linecap="round" stroke-linejoin="round"/>
<path d="M307.969 261.853L318.461 261.743C318.89 261.743 319.33 261.823 319.36 262.342C319.39 262.861 318.96 262.881 318.621 262.871C315.073 262.811 311.516 263.1 307.979 262.731C307.979 262.442 307.969 262.142 307.969 261.853Z" fill="#F8F8FB" stroke="#CACFDE" stroke-linecap="round" stroke-linejoin="round"/>
<path d="M308.688 258.82L318.97 258.76C319.42 258.76 319.97 258.76 319.97 259.379C319.97 259.768 319.58 259.918 319.19 259.918C315.823 259.918 312.455 259.918 309.088 259.918C308.818 259.918 308.568 259.688 308.308 259.559L308.688 258.82Z" fill="#F8F8FB" stroke="#CACFDE" stroke-linecap="round" stroke-linejoin="round"/>
<path d="M311.466 246.629C314.674 246.629 317.881 246.629 321.089 246.629C321.698 246.629 322.428 246.41 322.688 247.288C322.655 247.31 322.631 247.344 322.622 247.383C322.613 247.422 322.618 247.463 322.638 247.497C320.719 248.076 318.751 247.697 316.812 247.747C314.874 247.797 313.015 247.747 311.106 247.667C311.082 247.478 311.102 247.286 311.165 247.106C311.227 246.926 311.33 246.763 311.466 246.629Z" fill="#F8F8FB" stroke="#CACFDE" stroke-linecap="round" stroke-linejoin="round"/>
<path d="M310.817 249.692C314.054 249.692 317.282 249.692 320.509 249.692C321.189 249.692 322.188 249.423 321.908 250.75C318.081 250.859 314.264 250.919 310.437 250.75C310.41 250.556 310.431 250.359 310.497 250.175C310.563 249.99 310.673 249.825 310.817 249.692Z" fill="#F8F8FB" stroke="#CACFDE" stroke-linecap="round" stroke-linejoin="round"/>
<path d="M312.885 240.604L323.687 240.734C323.687 241.063 323.687 241.402 323.687 241.731L312.485 241.801C312.445 241.302 312.425 240.893 312.885 240.604Z" fill="#F8F8FB" stroke="#CACFDE" stroke-linecap="round" stroke-linejoin="round"/>
<path d="M309.358 255.748C312.655 255.748 315.953 255.748 319.26 255.748C319.77 255.748 320.619 255.508 320.559 256.396C320.559 257.094 319.75 256.895 319.27 256.885C315.973 256.885 312.665 256.835 309.368 256.805C309.368 256.436 309.358 256.097 309.358 255.748Z" fill="#F8F8FB" stroke="#CACFDE" stroke-linecap="round" stroke-linejoin="round"/>
<path d="M390.486 259.598C391.004 258.553 391.274 257.403 391.276 256.236C391.274 255.041 390.991 253.863 390.45 252.798C389.908 251.732 389.123 250.808 388.158 250.101C388.582 249.334 388.806 248.473 388.808 247.597C388.806 246.912 388.67 246.234 388.406 245.601C388.142 244.969 387.756 244.394 387.27 243.911C386.784 243.427 386.207 243.044 385.572 242.783C384.938 242.522 384.258 242.388 383.572 242.39C382.187 242.39 380.859 242.938 379.88 243.914C378.9 244.891 378.348 246.215 378.345 247.597C378.347 248.473 378.571 249.334 378.995 250.101C378.03 250.808 377.245 251.732 376.703 252.798C376.162 253.863 375.879 255.041 375.877 256.236C375.879 257.403 376.149 258.553 376.667 259.598C375.631 260.543 374.804 261.693 374.238 262.974C373.672 264.255 373.38 265.64 373.379 267.041C373.385 269.735 374.461 272.317 376.372 274.219C378.283 276.122 380.873 277.189 383.572 277.186C386.269 277.186 388.855 276.118 390.764 274.216C392.673 272.314 393.749 269.733 393.754 267.041C393.756 265.642 393.467 264.258 392.904 262.976C392.341 261.695 391.518 260.545 390.486 259.598Z" fill="#F8F8FB" stroke="#CACFDE" stroke-linecap="round" stroke-linejoin="round"/>
<path d="M367.414 270.373C367.411 271.438 367.199 272.492 366.788 273.475C366.377 274.458 365.776 275.351 365.02 276.102C364.264 276.853 363.367 277.448 362.38 277.854C361.394 278.259 360.337 278.466 359.27 278.463C357.117 278.466 355.051 277.615 353.526 276.098C352.001 274.581 351.141 272.522 351.136 270.373C351.136 265.903 354.783 249.812 359.27 249.812C363.757 249.812 367.414 265.903 367.414 270.373Z" fill="#F8F8FB" stroke="#CACFDE" stroke-linecap="round" stroke-linejoin="round"/>
<path d="M359.49 253.733H359.04V283.501H359.49V253.733Z" fill="#CACFDE"/>
<path d="M359.21 266.741C358.624 266.774 358.038 266.681 357.491 266.467C356.945 266.254 356.451 265.925 356.042 265.504C355.145 264.314 354.737 262.825 354.903 261.344H355.353C355.205 262.694 355.561 264.051 356.352 265.155C356.729 265.531 357.181 265.822 357.679 266.009C358.177 266.197 358.709 266.276 359.24 266.242V266.691L359.21 266.741Z" fill="#CACFDE"/>
<path d="M359.34 273.405H359.27V272.946C359.802 272.986 360.336 272.91 360.834 272.722C361.333 272.534 361.785 272.239 362.158 271.859C362.947 270.757 363.302 269.405 363.157 268.058L363.607 267.998C363.767 269.484 363.357 270.974 362.458 272.168C362.056 272.584 361.57 272.909 361.032 273.123C360.495 273.336 359.918 273.432 359.34 273.405Z" fill="#CACFDE"/>
<path d="M359.32 259.618V259.16C359.698 259.187 360.078 259.133 360.433 259.001C360.789 258.868 361.111 258.66 361.378 258.391C361.949 257.604 362.212 256.635 362.118 255.668H362.567C362.689 256.763 362.385 257.863 361.718 258.741C361.408 259.054 361.032 259.296 360.617 259.447C360.203 259.599 359.76 259.657 359.32 259.618Z" fill="#CACFDE"/>
<path d="M369.592 277.176C375.227 277.176 379.794 272.638 379.794 267.041C379.794 261.443 375.227 256.905 369.592 256.905C363.958 256.905 359.39 261.443 359.39 267.041C359.39 272.638 363.958 277.176 369.592 277.176Z" fill="#F8F8FB" stroke="#CACFDE" stroke-linecap="round" stroke-linejoin="round"/>
<path d="M369.812 260.237H369.362V283.501H369.812V260.237Z" fill="#CACFDE"/>
<path d="M369.542 267.24C368.988 267.274 368.432 267.187 367.915 266.985C367.397 266.784 366.93 266.473 366.544 266.073C365.698 264.955 365.311 263.556 365.465 262.162H365.915C365.795 263.432 366.151 264.701 366.914 265.724C367.263 266.075 367.684 266.346 368.148 266.519C368.612 266.691 369.108 266.76 369.602 266.721V267.18L369.542 267.24Z" fill="#CACFDE"/>
<path d="M369.662 272.348H369.592V271.899C370.087 271.939 370.586 271.871 371.052 271.698C371.518 271.526 371.94 271.254 372.29 270.901C373.052 269.878 373.408 268.609 373.289 267.34L373.739 267.29C373.894 268.682 373.511 270.08 372.67 271.201C372.282 271.598 371.812 271.906 371.292 272.104C370.773 272.303 370.217 272.386 369.662 272.348Z" fill="#CACFDE"/>
<path d="M285.616 53.4021C293.143 53.4021 299.245 47.2965 299.245 39.7648C299.245 32.2331 293.143 26.1274 285.616 26.1274C278.088 26.1274 271.986 32.2331 271.986 39.7648C271.986 47.2965 278.088 53.4021 285.616 53.4021Z" fill="#F8F8FB" stroke="#CACFDE" stroke-linecap="round" stroke-linejoin="round"/>
<path d="M193.735 259.598C194.253 258.553 194.523 257.403 194.525 256.236C194.523 255.041 194.24 253.863 193.699 252.798C193.157 251.732 192.372 250.808 191.407 250.101C191.836 249.336 192.06 248.474 192.056 247.597C192.054 246.215 191.502 244.891 190.522 243.914C189.542 242.938 188.215 242.39 186.83 242.39C185.446 242.39 184.118 242.938 183.139 243.914C182.159 244.891 181.607 246.215 181.604 247.597C181.601 248.474 181.825 249.336 182.254 250.101C181.289 250.808 180.504 251.732 179.962 252.798C179.421 253.863 179.138 255.041 179.136 256.236C179.138 257.403 179.408 258.553 179.926 259.598C178.889 260.543 178.06 261.692 177.493 262.973C176.925 264.254 176.631 265.64 176.628 267.041C176.627 268.378 176.89 269.703 177.402 270.938C177.915 272.174 178.666 273.297 179.614 274.242C180.562 275.188 181.687 275.937 182.925 276.447C184.164 276.958 185.491 277.219 186.83 277.216C188.168 277.219 189.492 276.958 190.729 276.45C191.965 275.942 193.089 275.195 194.036 274.253C194.984 273.311 195.736 272.192 196.25 270.959C196.764 269.727 197.03 268.406 197.033 267.071C197.035 265.664 196.742 264.274 196.174 262.987C195.607 261.7 194.776 260.546 193.735 259.598Z" fill="#F8F8FB" stroke="#CACFDE" stroke-linecap="round" stroke-linejoin="round"/>
<path d="M187.051 246.191H186.601V283.501H187.051V246.191Z" fill="#CACFDE"/>
<path d="M186.751 268.098C186.012 268.148 185.271 268.035 184.58 267.768C183.89 267.501 183.266 267.086 182.754 266.552C180.975 264.557 181.315 261.494 181.335 261.354L181.784 261.414C181.784 261.414 181.455 264.407 183.093 266.253C183.568 266.741 184.144 267.118 184.781 267.36C185.419 267.601 186.101 267.7 186.78 267.649V268.098H186.751Z" fill="#CACFDE"/>
<path d="M186.91 272.348H186.85V271.899C187.346 271.936 187.843 271.866 188.308 271.694C188.774 271.522 189.197 271.251 189.548 270.901C190.32 269.883 190.677 268.611 190.548 267.34L190.907 267.24C191.101 268.649 190.743 270.078 189.908 271.231C189.52 271.623 189.05 271.926 188.533 272.119C188.015 272.312 187.461 272.39 186.91 272.348Z" fill="#CACFDE"/>
<path d="M186.91 257.593H186.85V257.134H186.91C187.396 257.166 187.883 257.093 188.338 256.921C188.793 256.749 189.206 256.481 189.548 256.137C190.319 255.118 190.676 253.846 190.548 252.575H191.007C191.156 253.968 190.77 255.366 189.928 256.486C189.535 256.877 189.062 257.179 188.541 257.37C188.02 257.562 187.464 257.638 186.91 257.593Z" fill="#CACFDE"/>
<path d="M172.851 277.176C178.486 277.176 183.053 272.638 183.053 267.041C183.053 261.443 178.486 256.905 172.851 256.905C167.216 256.905 162.649 261.443 162.649 267.041C162.649 272.638 167.216 277.176 172.851 277.176Z" fill="#F8F8FB" stroke="#CACFDE" stroke-linecap="round" stroke-linejoin="round"/>
<path d="M173.071 260.237H172.621V283.501H173.071V260.237Z" fill="#CACFDE"/>
<path d="M172.791 267.24C172.237 267.272 171.682 267.184 171.165 266.983C170.648 266.781 170.18 266.471 169.793 266.073C168.952 264.953 168.57 263.554 168.724 262.162H169.174C169.056 263.432 169.412 264.7 170.173 265.724C170.524 266.075 170.947 266.346 171.413 266.518C171.878 266.69 172.376 266.76 172.871 266.721V267.18L172.791 267.24Z" fill="#CACFDE"/>
<path d="M172.921 272.348H172.861V271.899C173.355 271.939 173.852 271.871 174.316 271.698C174.78 271.526 175.201 271.254 175.549 270.901C176.313 269.879 176.67 268.61 176.548 267.34L176.998 267.29C177.16 268.693 176.773 270.105 175.919 271.231C175.53 271.623 175.061 271.926 174.543 272.119C174.025 272.312 173.472 272.39 172.921 272.348Z" fill="#CACFDE"/>
<path d="M276.952 259.598C277.47 258.553 277.74 257.403 277.742 256.236C277.74 255.041 277.457 253.863 276.916 252.798C276.374 251.732 275.589 250.808 274.624 250.101C275.045 249.334 275.265 248.472 275.264 247.597C275.261 246.215 274.709 244.891 273.729 243.914C272.75 242.938 271.422 242.39 270.037 242.39C268.653 242.39 267.325 242.938 266.346 243.914C265.366 244.891 264.814 246.215 264.811 247.597C264.808 248.474 265.032 249.336 265.461 250.101C264.496 250.808 263.711 251.732 263.169 252.798C262.628 253.863 262.345 255.041 262.343 256.236C262.345 257.403 262.615 258.553 263.133 259.598C262.097 260.543 261.27 261.693 260.704 262.974C260.138 264.255 259.846 265.64 259.845 267.041C259.851 269.735 260.927 272.317 262.838 274.219C264.749 276.122 267.339 277.189 270.037 277.186C271.375 277.189 272.699 276.929 273.936 276.42C275.172 275.912 276.296 275.165 277.243 274.223C278.191 273.281 278.943 272.162 279.457 270.929C279.971 269.697 280.237 268.376 280.24 267.041C280.237 265.641 279.943 264.256 279.377 262.975C278.812 261.695 277.986 260.545 276.952 259.598Z" fill="#F8F8FB" stroke="#CACFDE" stroke-linecap="round" stroke-linejoin="round"/>
<path d="M270.258 246.191H269.808V283.501H270.258V246.191Z" fill="#CACFDE"/>
<path d="M269.958 268.098C269.227 268.14 268.496 268.024 267.814 267.757C267.133 267.49 266.518 267.079 266.011 266.552C264.232 264.557 264.572 261.494 264.592 261.354L265.041 261.414C265.041 261.414 264.711 264.407 266.35 266.253C266.826 266.739 267.402 267.117 268.039 267.358C268.676 267.599 269.358 267.699 270.037 267.649V268.098H269.958Z" fill="#CACFDE"/>
<path d="M270.097 272.348H270.037V271.899C270.532 271.936 271.03 271.866 271.495 271.694C271.961 271.522 272.384 271.251 272.735 270.901C273.5 269.879 273.856 268.61 273.735 267.34L274.184 267.29C274.334 268.683 273.948 270.081 273.105 271.201C272.718 271.6 272.248 271.909 271.729 272.107C271.209 272.306 270.652 272.388 270.097 272.348Z" fill="#CACFDE"/>
<path d="M270.097 257.593H270.037V257.134H270.097C270.583 257.166 271.07 257.093 271.525 256.921C271.98 256.749 272.393 256.481 272.735 256.137C273.499 255.114 273.855 253.845 273.735 252.575H274.184C274.333 253.968 273.947 255.366 273.105 256.486C272.713 256.876 272.242 257.177 271.723 257.368C271.203 257.559 270.649 257.636 270.097 257.593Z" fill="#CACFDE"/>
<path d="M283.777 277.176C289.412 277.176 293.979 272.638 293.979 267.041C293.979 261.443 289.412 256.905 283.777 256.905C278.142 256.905 273.575 261.443 273.575 267.041C273.575 272.638 278.142 277.176 283.777 277.176Z" fill="#F8F8FB" stroke="#CACFDE" stroke-linecap="round" stroke-linejoin="round"/>
<path d="M283.997 260.237H283.547V283.501H283.997V260.237Z" fill="#CACFDE"/>
<path d="M283.717 267.24C283.163 267.274 282.607 267.187 282.09 266.985C281.572 266.784 281.105 266.473 280.719 266.073C279.877 264.953 279.492 263.555 279.64 262.162H280.1C279.972 263.433 280.329 264.705 281.099 265.724C281.45 266.075 281.872 266.347 282.338 266.519C282.804 266.691 283.302 266.76 283.797 266.721V267.18L283.717 267.24Z" fill="#CACFDE"/>
<path d="M283.837 272.348H283.777V271.899C284.272 271.94 284.771 271.872 285.237 271.699C285.703 271.527 286.126 271.255 286.475 270.901C287.239 269.879 287.596 268.61 287.474 267.34L287.924 267.29C288.078 268.694 287.688 270.104 286.835 271.231C286.446 271.623 285.977 271.926 285.459 272.119C284.942 272.312 284.388 272.39 283.837 272.348Z" fill="#CACFDE"/>
<path d="M-15.6063 283.501H387.638" stroke="#CACFDE" stroke-linecap="round" stroke-linejoin="round"/>
</g>
<defs>
<clipPath id="clip0_477:13221">
<rect width="375" height="284" fill="white"/>
</clipPath>
</defs>
</svg>
