<svg width="15" height="20" viewBox="0 0 15 20" fill="none" xmlns="http://www.w3.org/2000/svg">
<path d="M7.5 0C3.36364 0 0 3.44186 0 7.67442C0 11.0981 4.9072 17.0476 6.78289 19.1966C7.16573 19.6353 7.83427 19.6353 8.21711 19.1966C10.0928 17.0476 15 11.0981 15 7.67442C15 3.44186 11.6364 0 7.5 0ZM7.5 10.9302C5.54545 10.9302 3.95455 9.30233 3.95455 7.30233C3.95455 5.30233 5.54545 3.67442 7.5 3.67442C9.45455 3.67442 11.0455 5.30233 11.0455 7.30233C11.0455 9.30233 9.45455 10.9302 7.5 10.9302Z" fill="#FFC42D"/>
</svg>
