<svg width="12" height="13" viewBox="0 0 12 13" fill="none" xmlns="http://www.w3.org/2000/svg">
<path d="M8.15407 4.26763L11.6912 4.80928C11.7578 4.8177 11.8207 4.84592 11.8725 4.8906C11.9243 4.93528 11.9627 4.99455 11.9832 5.06137C12.0037 5.1282 12.0055 5.19977 11.9883 5.26761C11.9711 5.33545 11.9356 5.3967 11.8861 5.44411L9.32939 8.04751C9.28711 8.08956 9.25535 8.14182 9.2369 8.1997C9.21845 8.25758 9.21386 8.31932 9.22355 8.37948L9.82514 12.0603C9.83716 12.1292 9.83038 12.2003 9.80557 12.2653C9.78076 12.3304 9.73892 12.3868 9.68485 12.4281C9.63078 12.4695 9.56667 12.4941 9.49986 12.4991C9.43306 12.504 9.36625 12.4893 9.30711 12.4564L6.14323 10.7091C6.09276 10.6806 6.03629 10.6657 5.97891 10.6657C5.92153 10.6657 5.86505 10.6806 5.81459 10.7091L2.64513 12.4564C2.58581 12.4869 2.51962 12.4999 2.45374 12.4939C2.38786 12.4879 2.3248 12.4632 2.27142 12.4224C2.21803 12.3816 2.17636 12.3263 2.15092 12.2624C2.12548 12.1986 2.11724 12.1287 2.1271 12.0603L2.76768 8.37366C2.77597 8.31353 2.77072 8.25221 2.75235 8.19457C2.73397 8.13694 2.70298 8.08458 2.66184 8.04168L0.105117 5.43246C0.0581399 5.38298 0.0251403 5.3209 0.00976152 5.25306C-0.00561726 5.18522 -0.00278061 5.11426 0.0179593 5.048C0.0386991 4.98174 0.0765382 4.92275 0.127301 4.87755C0.178063 4.83234 0.23978 4.80267 0.305645 4.79181L3.84273 4.26181C3.89989 4.25344 3.9542 4.23046 4.00084 4.1949C4.04748 4.15934 4.08501 4.11231 4.1101 4.05796L5.69761 0.709074C5.72692 0.646367 5.77248 0.593523 5.82911 0.556561C5.88573 0.519599 5.95114 0.5 6.0179 0.5C6.08465 0.5 6.15006 0.519599 6.20669 0.556561C6.26331 0.593523 6.30888 0.646367 6.33819 0.709074L7.91456 4.06379C7.93763 4.11413 7.97108 4.15851 8.01249 4.19375C8.0539 4.22899 8.10225 4.25422 8.15407 4.26763Z" fill="#CACFDE"/>
</svg>
