<svg width="167" height="34" viewBox="0 0 167 34" fill="none" xmlns="http://www.w3.org/2000/svg">
<g clip-path="url(#clip0_453:1472)">
<path d="M25.8332 1.02393H18.9697C18.759 1.02393 18.557 1.10955 18.408 1.26195C18.259 1.41434 18.1753 1.62103 18.1753 1.83655V11.9943H8.48391V1.83655C8.48391 1.62103 8.40015 1.41434 8.25118 1.26195C8.1022 1.10955 7.90021 1.02393 7.68953 1.02393H0.794378C0.583696 1.02393 0.381606 1.10955 0.232631 1.26195C0.0836562 1.41434 0 1.62103 0 1.83655V31.7572C0 31.9727 0.0836562 32.1794 0.232631 32.3318C0.381606 32.4842 0.583696 32.5698 0.794378 32.5698H7.68953C7.90021 32.5698 8.1022 32.4842 8.25118 32.3318C8.40015 32.1794 8.48391 31.9727 8.48391 31.7572V20.023H18.1753V31.7572C18.1753 31.9727 18.259 32.1794 18.408 32.3318C18.557 32.4842 18.759 32.5698 18.9697 32.5698H25.8332C26.0426 32.5657 26.2423 32.4787 26.3904 32.3272C26.5385 32.1757 26.6235 31.9714 26.6276 31.7572V1.83655C26.6276 1.62103 26.5438 1.41434 26.3948 1.26195C26.2459 1.10955 26.0439 1.02393 25.8332 1.02393Z" fill="#040D2E"/>
<path d="M39.7015 3.13649C39.1014 2.52317 38.3371 2.1056 37.5051 1.93658C36.6731 1.76757 35.8108 1.85469 35.0272 2.18693C34.2435 2.51917 33.5737 3.08162 33.1025 3.80317C32.6313 4.52471 32.3799 5.37297 32.3799 6.2407C32.3799 7.10844 32.6313 7.9567 33.1025 8.67824C33.5737 9.39979 34.2435 9.96222 35.0272 10.2945C35.8108 10.6267 36.6731 10.7138 37.5051 10.5448C38.3371 10.3758 39.1014 9.95821 39.7015 9.34489C40.1002 8.93496 40.4152 8.44792 40.628 7.91217C40.8407 7.37642 40.9471 6.80268 40.9408 6.22444C40.95 5.65062 40.8449 5.08087 40.6318 4.54997C40.4188 4.01907 40.1022 3.53814 39.7015 3.13649Z" fill="#5468FF"/>
<path d="M98.9255 1.86893C98.2186 1.8667 97.5221 2.04319 96.898 2.38272C96.2739 2.72225 95.7416 3.21429 95.3482 3.81507C94.9549 4.41586 94.7126 5.10678 94.6433 5.82638C94.5739 6.54599 94.6794 7.27198 94.9505 7.9398C95.2215 8.60761 95.6499 9.19656 96.1971 9.65426C96.7444 10.112 97.3936 10.4242 98.0873 10.5633C98.7809 10.7023 99.4975 10.6639 100.173 10.4514C100.849 10.2388 101.463 9.85877 101.96 9.34502C102.357 8.93428 102.669 8.44672 102.879 7.9109C103.089 7.37509 103.193 6.80178 103.183 6.22456C103.19 5.65076 103.084 5.08145 102.872 4.55005C102.66 4.01864 102.347 3.53586 101.951 3.13009C101.554 2.72433 101.082 2.40376 100.562 2.18718C100.043 1.9706 99.4864 1.8624 98.9255 1.86893Z" fill="#00DCD1"/>
<path d="M115.162 3.13663C114.566 2.52101 113.803 2.10082 112.972 1.92948C112.142 1.75814 111.28 1.84338 110.496 2.17438C109.713 2.50537 109.044 3.06717 108.573 3.78836C108.103 4.50954 107.852 5.35755 107.854 6.22458C107.849 6.80176 107.957 7.37419 108.172 7.90757C108.388 8.44096 108.707 8.92434 109.109 9.32879C109.504 9.73763 109.974 10.0622 110.492 10.2838C111.01 10.5053 111.566 10.6194 112.128 10.6194C112.69 10.6194 113.246 10.5053 113.764 10.2838C114.282 10.0622 114.752 9.73763 115.147 9.32879C115.548 8.92106 115.865 8.43442 116.078 7.89815C116.291 7.36188 116.396 6.78708 116.386 6.20833C116.396 5.63827 116.293 5.07203 116.082 4.54401C115.872 4.01599 115.559 3.53719 115.162 3.13663Z" fill="#00DCD1"/>
<path d="M40.4796 14.3997C40.4106 14.3191 40.3248 14.2553 40.2286 14.2131C40.1324 14.1709 40.0281 14.1514 39.9235 14.1559H33.5685C33.3606 14.1602 33.1625 14.2477 33.0169 14.3996C32.8714 14.5515 32.79 14.7558 32.79 14.9685V31.6922C32.79 31.9078 32.8736 32.1145 33.0226 32.2669C33.1715 32.4193 33.3737 32.5049 33.5844 32.5049H39.9394C40.1501 32.5049 40.3521 32.4193 40.5011 32.2669C40.6501 32.1145 40.7338 31.9078 40.7338 31.6922V14.9685C40.7331 14.8607 40.7099 14.7543 40.6661 14.6563C40.6223 14.5583 40.5588 14.4708 40.4796 14.3997Z" fill="#040D2E"/>
<path d="M163.79 25.3863C163.448 24.929 163.018 24.5488 162.526 24.2691C162.034 23.9895 161.491 23.8166 160.931 23.761C160.364 23.693 159.79 23.7445 159.243 23.9122C158.697 24.0799 158.19 24.3603 157.753 24.7362C157.309 25.0963 156.94 25.5434 156.667 26.0513C156.394 26.5592 156.223 27.1177 156.164 27.6941C156.094 28.2715 156.139 28.8577 156.297 29.4166C156.456 29.9755 156.724 30.4955 157.086 30.9446C157.433 31.4042 157.869 31.7857 158.366 32.0653C158.864 32.345 159.412 32.5167 159.977 32.5698H160.47C161.518 32.5661 162.527 32.1627 163.3 31.4383C164.072 30.7139 164.553 29.7208 164.648 28.653C164.735 28.0774 164.703 27.4896 164.556 26.9272C164.408 26.3648 164.147 25.84 163.79 25.3863Z" fill="#5468FF"/>
<path d="M166.269 2.24262L159.914 1.57626C159.703 1.55815 159.493 1.62198 159.326 1.75504C159.245 1.82327 159.178 1.90722 159.129 2.00206C159.08 2.09691 159.05 2.20076 159.04 2.30762L157.356 18.9988C157.34 19.2145 157.402 19.4286 157.531 19.6002C157.597 19.683 157.68 19.7515 157.772 19.8017C157.865 19.8519 157.966 19.8829 158.071 19.8927L164.426 20.494C164.621 20.4955 164.81 20.4234 164.957 20.2915C165.103 20.1596 165.197 19.9771 165.22 19.7789L166.904 3.1365C166.928 2.93298 166.876 2.72777 166.758 2.56201C166.64 2.39624 166.466 2.28216 166.269 2.24262Z" fill="#040D2E"/>
<path d="M79.2426 17.8288C78.5229 16.9056 77.6039 16.1657 76.5577 15.6672C77.3709 15.186 78.0878 14.5519 78.6706 13.7982C79.5821 12.5281 80.0569 10.9852 80.021 9.41004C80.0881 8.18702 79.8524 6.96646 79.3358 5.86135C78.8193 4.75624 78.0386 3.8023 77.066 3.08786C74.6156 1.55861 71.7644 0.837962 68.8997 1.0238H59.8598C59.6491 1.0238 59.4469 1.10942 59.298 1.26182C59.149 1.41421 59.0654 1.6209 59.0654 1.83642V31.7571C59.0654 31.9726 59.149 32.1793 59.298 32.3317C59.4469 32.4841 59.6491 32.5697 59.8598 32.5697H67.8036C71.184 32.7854 74.5511 31.971 77.4791 30.2293C79.3061 28.814 80.5163 26.721 80.8492 24.4015C81.182 22.082 80.6108 19.7215 79.2585 17.8288H79.2426ZM67.0092 19.454H69.1222C70.1263 19.3795 71.1249 19.6607 71.9502 20.2504C72.2505 20.5125 72.4861 20.8433 72.6379 21.2161C72.7898 21.5889 72.8534 21.993 72.8239 22.3957C72.8491 22.8192 72.7792 23.243 72.6195 23.6346C72.4598 24.0262 72.2145 24.3751 71.9025 24.6548C71.1063 25.2728 70.1198 25.5784 69.1222 25.5162H67.0092V19.454ZM71.267 12.0754C70.4613 12.6255 69.5008 12.8882 68.5344 12.823H66.9456V7.70353H68.3119C69.3477 7.6246 70.3841 7.85015 71.2988 8.35361C71.5664 8.55765 71.7766 8.83055 71.9077 9.14456C72.0389 9.45857 72.0863 9.80249 72.0454 10.1414C72.0841 10.504 72.0364 10.8708 71.9064 11.2104C71.7764 11.55 71.5679 11.8524 71.2988 12.0917L71.267 12.0754Z" fill="#040D2E"/>
<path d="M149.446 17.5851C147.77 15.6078 145.716 14.0036 143.409 12.8719L139.977 10.9216C139.494 10.6805 139.066 10.337 138.722 9.914C138.504 9.63681 138.382 9.29425 138.372 8.93884C138.363 8.72055 138.408 8.50338 138.502 8.30738C138.597 8.11138 138.738 7.94286 138.913 7.81742C139.739 7.18358 141.344 7.10233 143.679 8.02871C145.032 8.57594 146.331 9.25632 147.556 10.0603C147.679 10.1315 147.819 10.1689 147.961 10.1689C148.103 10.1689 148.242 10.1315 148.366 10.0603C148.491 9.9901 148.596 9.88664 148.668 9.76079C148.741 9.63493 148.779 9.49134 148.779 9.34515V2.34038C148.779 2.1692 148.726 2.00231 148.63 1.86262C148.533 1.72294 148.397 1.61733 148.239 1.56027C146.884 1.07532 145.498 0.684371 144.092 0.390096C139.326 -0.585047 135.783 0.24383 133.177 2.50291C132.24 3.28961 131.488 4.28305 130.979 5.40885C130.47 6.53466 130.217 7.76367 130.238 9.00387C130.235 10.873 130.789 12.6988 131.827 14.2371C133.028 15.9111 134.581 17.2884 136.371 18.2677L139.31 19.9742C142.376 21.762 142.821 22.8834 142.821 23.3872C142.831 23.6759 142.766 23.9621 142.632 24.2163C142.498 24.4706 142.3 24.6837 142.058 24.8337C140.835 25.7276 138.452 25.6625 136.196 24.8337C134.643 24.2222 133.153 23.4546 131.747 22.5421C131.623 22.4643 131.48 22.4229 131.335 22.4225C131.189 22.4221 131.046 22.4627 130.921 22.5399C130.797 22.6171 130.695 22.7279 130.628 22.8601C130.561 22.9924 130.53 23.141 130.54 23.2897L131.128 31.2696C131.142 31.4315 131.202 31.5855 131.301 31.7126C131.4 31.8398 131.533 31.9344 131.684 31.9847C133.1 32.4515 134.543 32.8261 136.005 33.1062C137.221 33.337 138.455 33.4566 139.691 33.4637C142.704 33.6019 145.655 32.5683 147.953 30.5708C148.996 29.6059 149.822 28.4196 150.37 27.0945C150.919 25.7695 151.179 24.3379 151.13 22.8997C151.146 20.9883 150.555 19.1233 149.446 17.5851Z" fill="#040D2E"/>
<path d="M122.328 12.677C121.784 12.5444 121.218 12.5339 120.669 12.6461C120.121 12.7583 119.603 12.9906 119.15 13.3271C118.727 13.6204 118.368 13.9998 118.094 14.4416C117.821 14.8834 117.639 15.3782 117.561 15.8949C116.965 18.7107 115.454 21.2369 113.275 23.0624C111.095 24.8878 108.377 25.9049 105.56 25.9483C102.744 25.9916 99.9968 25.0586 97.765 23.301C95.5332 21.5435 93.9486 19.0649 93.2693 16.2688C93.1505 15.7153 92.9195 15.1934 92.5911 14.7371C92.2627 14.2807 91.8442 13.9 91.3629 13.6196C90.9149 13.3627 90.4205 13.2015 89.9099 13.1456C89.3992 13.0897 88.8828 13.1404 88.3919 13.2946C87.4226 13.5558 86.59 14.1909 86.0687 15.0667C85.5473 15.9424 85.3777 16.9907 85.5957 17.9915C86.636 22.631 89.2025 26.7642 92.8657 29.6994C96.5289 32.6346 101.066 34.1936 105.719 34.1155C110.371 34.0375 114.857 32.3271 118.424 29.2706C121.991 26.2142 124.424 21.9971 125.315 17.3252C125.306 17.2659 125.306 17.2056 125.315 17.1464C125.423 16.1588 125.182 15.1642 124.633 14.3438C124.085 13.5234 123.267 12.9319 122.328 12.677Z" fill="#040D2E"/>
</g>
<defs>
<clipPath id="clip0_453:1472">
<rect width="167" height="34" fill="white"/>
</clipPath>
</defs>
</svg>
