<svg width="100" height="22" viewBox="0 0 100 22" fill="none" xmlns="http://www.w3.org/2000/svg">
<g clip-path="url(#clip0_453_1595)">
<path d="M15.469 1.60938H11.3591C11.2329 1.60938 11.112 1.66065 11.0228 1.7519C10.9336 1.84316 10.8834 1.96692 10.8834 2.09597V8.17846H5.08018V2.09597C5.08018 1.96692 5.03003 1.84316 4.94083 1.7519C4.85162 1.66065 4.73066 1.60938 4.60451 1.60938H0.475676C0.349519 1.60938 0.228507 1.66065 0.1393 1.7519C0.0500935 1.84316 0 1.96692 0 2.09597V20.0125C0 20.1416 0.0500935 20.2654 0.1393 20.3566C0.228507 20.4479 0.349519 20.4991 0.475676 20.4991H4.60451C4.73066 20.4991 4.85162 20.4479 4.94083 20.3566C5.03003 20.2654 5.08018 20.1416 5.08018 20.0125V12.9861H10.8834V20.0125C10.8834 20.1416 10.9336 20.2654 11.0228 20.3566C11.112 20.4479 11.2329 20.4991 11.3591 20.4991H15.469C15.5944 20.4966 15.7139 20.4446 15.8026 20.3539C15.8913 20.2631 15.9422 20.1408 15.9447 20.0125V2.09597C15.9447 1.96692 15.8945 1.84316 15.8053 1.7519C15.7161 1.66065 15.5951 1.60938 15.469 1.60938Z" fill="white"/>
<path d="M23.7734 2.87455C23.414 2.50729 22.9564 2.25725 22.4582 2.15604C21.96 2.05483 21.4436 2.107 20.9744 2.30595C20.5051 2.50489 20.104 2.84169 19.8219 3.27375C19.5397 3.70582 19.3892 4.21376 19.3892 4.73336C19.3892 5.25296 19.5397 5.7609 19.8219 6.19296C20.104 6.62502 20.5051 6.96181 20.9744 7.16075C21.4436 7.3597 21.96 7.41187 22.4582 7.31066C22.9564 7.20945 23.414 6.95941 23.7734 6.59215C24.0121 6.34668 24.2007 6.05504 24.3281 5.73423C24.4555 5.41342 24.5192 5.06987 24.5154 4.72362C24.521 4.38001 24.458 4.03885 24.3304 3.72094C24.2029 3.40304 24.0133 3.11506 23.7734 2.87455Z" fill="#5468FF"/>
<path d="M59.2368 2.11565C58.8135 2.11431 58.3964 2.21999 58.0227 2.4233C57.649 2.62661 57.3302 2.92125 57.0947 3.281C56.8591 3.64075 56.7141 4.05448 56.6726 4.48538C56.631 4.91628 56.6942 5.351 56.8565 5.75089C57.0188 6.15078 57.2753 6.50345 57.603 6.77752C57.9307 7.05159 58.3195 7.23857 58.7348 7.32184C59.1502 7.40511 59.5793 7.38209 59.9838 7.25482C60.3884 7.12755 60.756 6.89998 61.0539 6.59234C61.2913 6.34639 61.4784 6.05444 61.6042 5.73359C61.73 5.41274 61.792 5.06945 61.7864 4.72381C61.7903 4.38021 61.7268 4.03931 61.6 3.7211C61.4733 3.4029 61.2857 3.11381 61.0482 2.87083C60.8107 2.62786 60.528 2.4359 60.2169 2.30621C59.9058 2.17653 59.5726 2.11173 59.2368 2.11565Z" fill="#00DCD1"/>
<path d="M68.9593 2.87457C68.6019 2.50593 68.1455 2.25433 67.648 2.15173C67.1504 2.04913 66.6344 2.10017 66.1653 2.29837C65.6962 2.49657 65.2954 2.83298 65.0136 3.26482C64.7319 3.69667 64.582 4.20446 64.5831 4.72364C64.5797 5.06926 64.6446 5.41203 64.7737 5.73142C64.9028 6.05081 65.0937 6.34026 65.3347 6.58245C65.571 6.82726 65.8525 7.02163 66.1628 7.1543C66.473 7.28697 66.8059 7.35529 67.1422 7.35529C67.4785 7.35529 67.8115 7.28697 68.1218 7.1543C68.4321 7.02163 68.7135 6.82726 68.9498 6.58245C69.1903 6.3383 69.3801 6.0469 69.5076 5.72578C69.6351 5.40466 69.6978 5.06047 69.6919 4.71391C69.6979 4.37256 69.6361 4.03349 69.5101 3.71731C69.3842 3.40113 69.1968 3.11443 68.9593 2.87457Z" fill="#00DCD1"/>
<path d="M24.2393 9.61877C24.198 9.57048 24.1466 9.5323 24.089 9.50703C24.0314 9.48176 23.969 9.47007 23.9063 9.4728H20.1009C19.9764 9.47535 19.8578 9.52773 19.7706 9.61872C19.6835 9.7097 19.6347 9.83201 19.6348 9.9594V19.9736C19.6348 20.1026 19.6848 20.2264 19.774 20.3177C19.8632 20.4089 19.9843 20.4602 20.1104 20.4602H23.9158C24.042 20.4602 24.163 20.4089 24.2522 20.3177C24.3414 20.2264 24.3915 20.1026 24.3915 19.9736V9.9594C24.3911 9.89485 24.3772 9.83113 24.351 9.77243C24.3248 9.71372 24.2867 9.66135 24.2393 9.61877Z" fill="white"/>
<path d="M98.0781 16.1977C97.8732 15.9239 97.6155 15.6962 97.3209 15.5287C97.0263 15.3613 96.7011 15.2577 96.3657 15.2245C96.0264 15.1837 95.6825 15.2145 95.3552 15.315C95.028 15.4154 94.7244 15.5833 94.463 15.8084C94.1972 16.024 93.9761 16.2917 93.8128 16.5959C93.6494 16.9 93.5471 17.2345 93.5116 17.5796C93.4692 17.9254 93.4963 18.2763 93.5912 18.611C93.6861 18.9457 93.8467 19.2571 94.0634 19.526C94.2711 19.8012 94.5322 20.0297 94.8301 20.1971C95.128 20.3645 95.4564 20.4674 95.7949 20.4992H96.0898C96.7174 20.497 97.3216 20.2554 97.7844 19.8216C98.2471 19.3879 98.535 18.7932 98.5918 18.1538C98.6437 17.8091 98.6248 17.4572 98.5363 17.1204C98.4479 16.7836 98.2918 16.4693 98.0781 16.1977Z" fill="#5468FF"/>
<path d="M99.5622 2.3393L95.7568 1.94029C95.6305 1.92944 95.5048 1.96766 95.4048 2.04734C95.3563 2.08819 95.3162 2.13846 95.2868 2.19526C95.2574 2.25205 95.2393 2.31423 95.2335 2.37822L94.2251 12.373C94.2155 12.5021 94.2527 12.6303 94.3298 12.733C94.3697 12.7826 94.4188 12.8237 94.4744 12.8537C94.5299 12.8838 94.5906 12.9023 94.6532 12.9082L98.4586 13.2683C98.5755 13.2692 98.6886 13.226 98.7763 13.147C98.8641 13.068 98.9203 12.9588 98.9343 12.8401L99.9428 2.87456C99.957 2.75269 99.9257 2.62981 99.8551 2.53055C99.7845 2.43129 99.6799 2.36298 99.5622 2.3393Z" fill="white"/>
<path d="M47.4508 11.6723C47.0198 11.1195 46.4696 10.6765 45.843 10.378C46.33 10.0898 46.7593 9.71011 47.1083 9.25879C47.6541 8.49827 47.9384 7.57435 47.9169 6.63116C47.9571 5.89881 47.8159 5.16794 47.5066 4.5062C47.1973 3.84445 46.7299 3.27324 46.1474 2.84542C44.6801 1.92971 42.9728 1.49818 41.2575 1.60946H35.8443C35.7182 1.60946 35.5971 1.66073 35.5079 1.75199C35.4187 1.84324 35.3687 1.967 35.3687 2.09606V20.0126C35.3687 20.1417 35.4187 20.2654 35.5079 20.3567C35.5971 20.4479 35.7182 20.4992 35.8443 20.4992H40.6011C42.6253 20.6284 44.6415 20.1407 46.3948 19.0978C47.4888 18.2503 48.2135 16.997 48.4128 15.6081C48.6121 14.2191 48.2701 12.8057 47.4603 11.6723H47.4508ZM40.1254 12.6455H41.3907C41.9919 12.6009 42.5899 12.7693 43.0841 13.1224C43.2639 13.2793 43.405 13.4775 43.4959 13.7007C43.5868 13.9239 43.6249 14.1659 43.6073 14.407C43.6224 14.6606 43.5805 14.9144 43.4849 15.1489C43.3892 15.3833 43.2424 15.5923 43.0555 15.7597C42.5787 16.1298 41.9881 16.3128 41.3907 16.2755H40.1254V12.6455ZM42.675 8.2272C42.1925 8.55656 41.6174 8.71391 41.0387 8.67486H40.0873V5.6093H40.9055C41.5257 5.56204 42.1463 5.69709 42.694 5.99857C42.8543 6.12075 42.9801 6.28416 43.0587 6.47219C43.1372 6.66022 43.1656 6.86616 43.1411 7.06909C43.1643 7.28622 43.1357 7.50585 43.0579 7.70922C42.98 7.9126 42.8552 8.09365 42.694 8.23693L42.675 8.2272Z" fill="white"/>
<path d="M89.489 11.5263C88.4855 10.3423 87.255 9.38167 85.8738 8.70401L83.8188 7.53618C83.5294 7.39177 83.2733 7.18611 83.0674 6.9328C82.937 6.76682 82.8634 6.56169 82.858 6.34887C82.8524 6.21816 82.8791 6.08812 82.9357 5.97075C82.9922 5.85339 83.0768 5.75248 83.1815 5.67737C83.6762 5.29782 84.6371 5.24916 86.0356 5.80389C86.846 6.13157 87.6234 6.53898 88.3568 7.02038C88.4309 7.06301 88.5144 7.08541 88.5994 7.08541C88.6844 7.08541 88.7679 7.06301 88.842 7.02038C88.9171 6.97837 88.9796 6.91642 89.0232 6.84106C89.0667 6.7657 89.0896 6.67971 89.0894 6.59217V2.3977C89.0892 2.2952 89.058 2.19526 89.0001 2.11162C88.9421 2.02797 88.8604 1.96473 88.7659 1.93057C87.9546 1.64018 87.1251 1.40608 86.2829 1.22986C83.4289 0.645946 81.3074 1.14228 79.7471 2.49502C79.1858 2.9661 78.7358 3.56097 78.431 4.23511C78.1262 4.90924 77.9744 5.64518 77.9871 6.38781C77.985 7.50708 78.3169 8.60034 78.9384 9.52151C79.6577 10.5239 80.5874 11.3486 81.6593 11.935L83.4193 12.9569C85.2555 14.0274 85.5218 14.6989 85.5218 15.0006C85.5278 15.1735 85.4886 15.3448 85.4083 15.4971C85.3281 15.6493 85.2097 15.7769 85.0652 15.8667C84.3326 16.402 82.9055 16.3631 81.5546 15.8667C80.6245 15.5006 79.7323 15.0409 78.8909 14.4945C78.8165 14.4479 78.7309 14.4231 78.6437 14.4229C78.5564 14.4227 78.4708 14.447 78.3962 14.4932C78.3215 14.5394 78.2607 14.6058 78.2205 14.685C78.1802 14.7642 78.162 14.8531 78.1679 14.9422L78.5199 19.7206C78.5282 19.8175 78.5643 19.9098 78.6235 19.9859C78.6827 20.062 78.7624 20.1187 78.8528 20.1488C79.7006 20.4283 80.5649 20.6526 81.4405 20.8203C82.1685 20.9585 82.9072 21.0302 83.6477 21.0344C85.4514 21.1172 87.2188 20.4983 88.5946 19.3021C89.2196 18.7244 89.7137 18.014 90.0423 17.2206C90.371 16.4271 90.5263 15.5699 90.4973 14.7086C90.507 13.5641 90.1531 12.4474 89.489 11.5263Z" fill="white"/>
<path d="M73.2505 8.58731C72.9246 8.50793 72.5859 8.50162 72.2574 8.56882C71.929 8.63601 71.6187 8.77513 71.3478 8.97659C71.0944 9.15222 70.8791 9.37941 70.7154 9.64397C70.5517 9.90854 70.4431 10.2048 70.3964 10.5142C70.039 12.2003 69.1343 13.713 67.8294 14.8061C66.5246 15.8992 64.8965 16.5082 63.2102 16.5342C61.5238 16.5601 59.8787 16.0014 58.5423 14.949C57.2059 13.8966 56.257 12.4124 55.8502 10.7381C55.7791 10.4066 55.6408 10.0942 55.4441 9.8209C55.2474 9.54763 54.9969 9.31967 54.7086 9.15176C54.4404 8.99793 54.1444 8.90136 53.8386 8.86791C53.5328 8.83445 53.2236 8.86481 52.9296 8.95713C52.3492 9.11355 51.8507 9.49387 51.5385 10.0183C51.2263 10.5427 51.1247 11.1704 51.2552 11.7697C51.8782 14.5478 53.415 17.0228 55.6085 18.7804C57.8021 20.538 60.5191 21.4715 63.3051 21.4248C66.091 21.378 68.7767 20.3538 70.9127 18.5236C73.0487 16.6934 74.5055 14.1682 75.039 11.3707C75.0336 11.3352 75.0336 11.2991 75.039 11.2636C75.1041 10.6722 74.9593 10.0767 74.631 9.58541C74.3027 9.09415 73.8127 8.73993 73.2505 8.58731Z" fill="white"/>
</g>
<defs>
<clipPath id="clip0_453_1595">
<rect width="100" height="20.3593" fill="white" transform="translate(0 0.996338)"/>
</clipPath>
</defs>
</svg>
